<svg xmlns="http://www.w3.org/2000/svg" width="18.309" height="18.305" viewBox="0 0 18.309 18.305">
  <path id="Icon_awesome-instagram" data-name="Icon awesome-instagram" d="M9.151,6.7a4.693,4.693,0,1,0,4.693,4.693A4.686,4.686,0,0,0,9.151,6.7Zm0,7.744A3.051,3.051,0,1,1,12.2,11.39a3.057,3.057,0,0,1-3.051,3.051Zm5.98-7.936A1.095,1.095,0,1,1,14.037,5.41,1.092,1.092,0,0,1,15.131,6.505ZM18.24,7.616a5.417,5.417,0,0,0-1.479-3.835A5.453,5.453,0,0,0,12.926,2.3c-1.511-.086-6.041-.086-7.552,0A5.445,5.445,0,0,0,1.538,3.777,5.435,5.435,0,0,0,.059,7.612c-.086,1.511-.086,6.041,0,7.552A5.417,5.417,0,0,0,1.538,19a5.46,5.46,0,0,0,3.835,1.479c1.511.086,6.041.086,7.552,0A5.417,5.417,0,0,0,16.761,19a5.453,5.453,0,0,0,1.479-3.835c.086-1.511.086-6.037,0-7.548Zm-1.952,9.17a3.089,3.089,0,0,1-1.74,1.74c-1.2.478-4.064.368-5.4.368s-4.195.106-5.4-.368a3.089,3.089,0,0,1-1.74-1.74c-.478-1.2-.368-4.064-.368-5.4s-.106-4.195.368-5.4a3.089,3.089,0,0,1,1.74-1.74c1.2-.478,4.064-.368,5.4-.368s4.195-.106,5.4.368a3.089,3.089,0,0,1,1.74,1.74c.478,1.2.368,4.064.368,5.4S16.765,15.585,16.287,16.786Z" transform="translate(0.005 -2.238)" fill="#f4f2ef"/>
</svg>
