<svg xmlns="http://www.w3.org/2000/svg" width="26.25" height="31.715" viewBox="0 0 26.25 31.715">
  <path id="_17676289951537184110" data-name="17676289951537184110" d="M44.239,30.39,42.309,8.9a1.138,1.138,0,0,0-1.134-1.037H37.2V6.067a6.066,6.066,0,1,0-12.132,0V7.862H21.081A1.138,1.138,0,0,0,19.947,8.9L18.01,30.475a1.138,1.138,0,0,0,1.134,1.24H43.116a1.138,1.138,0,0,0,1.138-1.138A1.158,1.158,0,0,0,44.239,30.39ZM27.34,6.067a3.79,3.79,0,1,1,7.579,0V7.862H27.34ZM20.389,29.438l1.733-19.3h2.942v2.036a1.138,1.138,0,1,0,2.277,0V10.138h7.579v2.036a1.138,1.138,0,1,0,2.277,0V10.138h2.939l1.733,19.3H20.389Z" transform="translate(-18.005)" fill="#cfa44b"/>
</svg>
