<svg xmlns="http://www.w3.org/2000/svg" width="78.259" height="96.757" viewBox="0 0 78.259 96.757">
  <g id="Group_184" data-name="Group 184" transform="translate(415.005 107.953)">
    <g id="Group_181" data-name="Group 181" transform="translate(-414.004 -59.587)">
      <g id="Group_175" data-name="Group 175" transform="translate(0 0)">
        <path id="Path_145" data-name="Path 145" d="M-337.819,39.24h-59.689L-414,69.235h59.689Z" transform="translate(414.004 -21.844)" fill="#211f1e" stroke="#f4f2ef" stroke-linecap="round" stroke-linejoin="round" stroke-width="2"/>
        <path id="Path_146" data-name="Path 146" d="M-376.764,17.522l.073-17.272H-317l-.073,17.272Z" transform="translate(393.261 -0.126)" fill="#211f1e" stroke="#f4f2ef" stroke-linecap="round" stroke-linejoin="round" stroke-width="2"/>
        <path id="Path_147" data-name="Path 147" d="M-397.508,17.522l.073-17.272-16.5,29.994L-414,47.517Z" transform="translate(414.004 -0.126)" fill="#211f1e" stroke="#f4f2ef" stroke-linecap="round" stroke-linejoin="round" stroke-width="2"/>
        <path id="Path_148" data-name="Path 148" d="M-262.765,17.522l.073-17.272-16.5,29.994-.073,17.272Z" transform="translate(338.951 -0.126)" fill="#211f1e" stroke="#f4f2ef" stroke-linecap="round" stroke-linejoin="round" stroke-width="2"/>
        <path id="Path_149" data-name="Path 149" d="M-414,85.232l.073-17.272h59.689l-.073,17.272Z" transform="translate(414.004 -37.841)" fill="#211f1e" stroke="#f4f2ef" stroke-linecap="round" stroke-linejoin="round" stroke-width="2"/>
        <path id="Path_150" data-name="Path 150" d="M-337.819-.031h-59.689L-414,29.963h59.689Z" transform="translate(414.004 0.031)" fill="#211f1e" stroke="#f4f2ef" stroke-linecap="round" stroke-linejoin="round" stroke-width="2"/>
      </g>
      <g id="Group_180" data-name="Group 180" transform="translate(20.183 10.501)">
        <g id="Group_179" data-name="Group 179">
          <g id="Group_176" data-name="Group 176" transform="translate(0 6.245)">
            <path id="Path_151" data-name="Path 151" d="M-366.649,41.88a2.564,2.564,0,0,1-1.24-.255.992.992,0,0,1-.538-.7,1.539,1.539,0,0,1,.237-1.016,3.6,3.6,0,0,1,1.026-1.143,4.979,4.979,0,0,1,1.492-.742,5.7,5.7,0,0,1,1.75-.252,4,4,0,0,1,.977.11.929.929,0,0,1,.534.29c.072.1.093.183.06.242a.577.577,0,0,1-.268.193c-.3.129-.454.194-.757.326h-.085c-.08-.163-.12-.243-.2-.4a.911.911,0,0,0-.249-.3.836.836,0,0,0-.487-.112,1.709,1.709,0,0,0-1.054.364,3.169,3.169,0,0,0-.855,1.013,1.354,1.354,0,0,0-.2.684.594.594,0,0,0,.3.507,1.753,1.753,0,0,0,.928.19,5.312,5.312,0,0,0,.769-.063,6.539,6.539,0,0,0,.927-.216h.037l-.08.143a5.212,5.212,0,0,1-1.374.809A4.3,4.3,0,0,1-366.649,41.88Z" transform="translate(368.444 -37.77)" fill="#f4f2ef"/>
            <path id="Path_152" data-name="Path 152" d="M-353.113,41.932a2.557,2.557,0,0,1-1.358-.308,1.2,1.2,0,0,1-.584-.8,1.522,1.522,0,0,1,.216-1.044,3.1,3.1,0,0,1,.927-1,4.9,4.9,0,0,1,1.41-.683,5.448,5.448,0,0,1,1.663-.239,3.188,3.188,0,0,1,1.377.259,1.121,1.121,0,0,1,.637.684,1.28,1.28,0,0,1-.185.986,3.444,3.444,0,0,1-.945,1.035,5.653,5.653,0,0,1-1.464.8A4.825,4.825,0,0,1-353.113,41.932Zm.392-.463a1.318,1.318,0,0,0,.7-.218,2.836,2.836,0,0,0,.646-.567,4.5,4.5,0,0,0,.508-.724,3.328,3.328,0,0,0,.349-.852.838.838,0,0,0-.05-.629.639.639,0,0,0-.592-.241,1.415,1.415,0,0,0-.7.183,2.423,2.423,0,0,0-.622.5,3.725,3.725,0,0,0-.5.691,3.488,3.488,0,0,0-.359.885,1.036,1.036,0,0,0,.033.7A.584.584,0,0,0-352.721,41.469Z" transform="translate(360.998 -37.822)" fill="#f4f2ef"/>
            <path id="Path_153" data-name="Path 153" d="M-337.965,42a2.537,2.537,0,0,1-1.239-.258,1.006,1.006,0,0,1-.538-.7,1.5,1.5,0,0,1,.228-1,3.4,3.4,0,0,1,1-1.106,4.9,4.9,0,0,1,1.474-.71,5.882,5.882,0,0,1,1.744-.24,4.224,4.224,0,0,1,.98.105.967.967,0,0,1,.541.277c.075.1.1.175.066.231a.556.556,0,0,1-.263.185l-.75.312h-.085c-.084-.156-.126-.233-.211-.387a.915.915,0,0,0-.256-.284.884.884,0,0,0-.49-.107,1.717,1.717,0,0,0-1.045.348,2.974,2.974,0,0,0-.834.975,1.293,1.293,0,0,0-.189.667.594.594,0,0,0,.3.5,1.768,1.768,0,0,0,.928.188,5.3,5.3,0,0,0,.769-.063,6.525,6.525,0,0,0,.926-.214h.037l-.079.142a5.293,5.293,0,0,1-1.373.808A4.284,4.284,0,0,1-337.965,42Z" transform="translate(352.466 -37.887)" fill="#f4f2ef"/>
            <path id="Path_154" data-name="Path 154" d="M-324.429,42.05a2.534,2.534,0,0,1-1.356-.311,1.216,1.216,0,0,1-.585-.8,1.473,1.473,0,0,1,.205-1.025,2.917,2.917,0,0,1,.907-.964,4.806,4.806,0,0,1,1.393-.653,5.621,5.621,0,0,1,1.657-.227,3.376,3.376,0,0,1,1.383.247,1.127,1.127,0,0,1,.654.653,1.18,1.18,0,0,1-.166.952,3.369,3.369,0,0,1-.933,1.015,5.763,5.763,0,0,1-1.464.8A4.812,4.812,0,0,1-324.429,42.05Zm.394-.468a1.319,1.319,0,0,0,.7-.218,2.835,2.835,0,0,0,.644-.563,4.343,4.343,0,0,0,.5-.711,3.081,3.081,0,0,0,.334-.825.777.777,0,0,0-.066-.6.668.668,0,0,0-.6-.23,1.443,1.443,0,0,0-.7.174,2.316,2.316,0,0,0-.61.476,3.457,3.457,0,0,0-.484.667,3.344,3.344,0,0,0-.348.864,1.033,1.033,0,0,0,.036.692A.585.585,0,0,0-324.035,41.582Z" transform="translate(345.021 -37.939)" fill="#f4f2ef"/>
            <path id="Path_155" data-name="Path 155" d="M-311.435,42.1a1.162,1.162,0,0,1-.869-.284c-.182-.187-.158-.457.035-.787a1.754,1.754,0,0,1,.47-.536,2.641,2.641,0,0,1,.808-.373,10.013,10.013,0,0,1,1.357-.284l1.251-.181.269-.481c.108-.193.1-.345-.024-.459a.918.918,0,0,0-.624-.174,1.525,1.525,0,0,0-.619.1.726.726,0,0,0-.346.313l-.2.352-.066.031-.806,0c-.121,0-.2-.019-.226-.055s-.018-.1.031-.185a.93.93,0,0,1,.4-.325,4.446,4.446,0,0,1,.73-.286,7.353,7.353,0,0,1,.957-.236,5.2,5.2,0,0,1,.875-.066,5.158,5.158,0,0,1,1.044.1,1.137,1.137,0,0,1,.629.305.445.445,0,0,1-.007.547c-.447.8-.681,1.217-1.217,2.18a.636.636,0,0,0,.505.147h.354l.021.028-.073.131a2.587,2.587,0,0,1-.645.334,2.591,2.591,0,0,1-.924.156,1.274,1.274,0,0,1-.743-.17.56.56,0,0,1-.23-.477h-.074a5.913,5.913,0,0,1-.983.448A3.17,3.17,0,0,1-311.435,42.1Zm.917-1.319c-.1.186-.112.328-.021.422a.719.719,0,0,0,.515.14,3.121,3.121,0,0,0,.758-.109c.3-.533.435-.782.7-1.259a8.027,8.027,0,0,0-1.045.2,1.926,1.926,0,0,0-.587.25A1.075,1.075,0,0,0-310.517,40.78Z" transform="translate(337.242 -37.999)" fill="#f4f2ef"/>
          </g>
          <g id="Group_177" data-name="Group 177" transform="translate(27.929 0.959)">
            <path id="Path_156" data-name="Path 156" d="M-304.1,29.214A2.212,2.212,0,0,1-305.181,29a.379.379,0,0,1-.134-.58,1.363,1.363,0,0,1,.54-.483,4.308,4.308,0,0,1,1.036-.385,1.085,1.085,0,0,1-.253-.391.533.533,0,0,1,.08-.422,1.316,1.316,0,0,1,.481-.465,2.881,2.881,0,0,1,.773-.319,3.457,3.457,0,0,1,.9-.111,1.705,1.705,0,0,1,.985.223.377.377,0,0,1,.106.541,1.122,1.122,0,0,1-.522.412,5.62,5.62,0,0,1-1.221.352.922.922,0,0,1,.092.089c.029.032.06.065.094.1.3.3.446.451.749.742a7.542,7.542,0,0,0,1.176-.859l-.655-.208.046-.082,1.93.027-.046.082-.777.178c-.271.2-.531.385-.782.551s-.495.315-.734.45c.232.221.349.33.584.544l.556.173-.041.072-1.772-.026-.328-.3a5.348,5.348,0,0,1-.874.239A4.67,4.67,0,0,1-304.1,29.214Zm-.05-.975c-.115.2-.113.362.007.478a.965.965,0,0,0,.655.179,3.211,3.211,0,0,0,1-.151c-.334-.307-.5-.462-.828-.781l-.135-.131-.12-.117a1.447,1.447,0,0,0-.359.24A1.24,1.24,0,0,0-304.153,28.239Zm1.412-1.714a.383.383,0,0,0-.04.338,1.24,1.24,0,0,0,.234.354,2.326,2.326,0,0,0,.516-.295,1.242,1.242,0,0,0,.332-.374.357.357,0,0,0,.045-.319c-.039-.091-.146-.138-.323-.139a.829.829,0,0,0-.46.125A.877.877,0,0,0-302.741,26.525Z" transform="translate(305.395 -25.839)" fill="#f4f2ef"/>
          </g>
          <g id="Group_178" data-name="Group 178" transform="translate(2.679)">
            <path id="Path_157" data-name="Path 157" d="M-355.245,26.425a.741.741,0,0,1-.079.741,2.225,2.225,0,0,1-1.244.946,6.387,6.387,0,0,1-2.251.312l-3.576-.045c1.1-1.954,1.6-2.832,2.639-4.706h3.4a3.222,3.222,0,0,1,1.763.346.635.635,0,0,1,.162.93,1.842,1.842,0,0,1-.59.618,3.147,3.147,0,0,1-.914.416A1.032,1.032,0,0,1-355.245,26.425Zm-3.368-1.926c-.248.444-.371.664-.618,1.1l1.589.023a2.83,2.83,0,0,0,.979-.129.954.954,0,0,0,.541-.416c.1-.186.08-.328-.072-.423a1.7,1.7,0,0,0-.824-.148Zm1.179,2.961a.979.979,0,0,0,.567-.433q.33-.585-.943-.6l-1.864-.029-.657,1.167,1.865.028A3.1,3.1,0,0,0-357.435,27.46Z" transform="translate(362.395 -23.673)" fill="#f4f2ef"/>
            <path id="Path_158" data-name="Path 158" d="M-340.464,27.536l-3.207-.049c-.471.4-.707.6-1.181,1l-1.639-.021c2.309-1.9,3.384-2.7,5.8-4.8h1.592c.058,2.133.182,3.013.369,4.894l-1.68-.021C-340.435,28.141-340.445,27.94-340.464,27.536Zm-.04-.831c-.031-.729-.046-1.1-.057-1.866-.867.76-1.289,1.117-2.133,1.832Z" transform="translate(353.537 -23.673)" fill="#f4f2ef"/>
            <path id="Path_159" data-name="Path 159" d="M-322.057,28.638c-.246-.517-.37-.774-.611-1.3h-.079l-1.391-.022-.725,1.288-1.6-.02c1.046-1.858,1.513-2.682,2.754-4.908h3.015a3.483,3.483,0,0,1,1.465.256,1.107,1.107,0,0,1,.656.706,1.372,1.372,0,0,1-.2,1.018,2.666,2.666,0,0,1-.9.941,4.379,4.379,0,0,1-1.379.567c.281.61.427.905.718,1.5Zm1.659-3.677a1.423,1.423,0,0,0-.966-.248l-1.308-.011c-.411.734-.6,1.076-.978,1.744l1.3.02a2.949,2.949,0,0,0,1.22-.2,1.471,1.471,0,0,0,.732-.63C-320.237,25.347-320.236,25.121-320.4,24.961Z" transform="translate(342.381 -23.673)" fill="#f4f2ef"/>
          </g>
        </g>
      </g>
    </g>
    <g id="Group_183" data-name="Group 183" transform="translate(-390.824 -106.951)">
      <path id="Path_160" data-name="Path 160" d="M-332.577-88.9a17.992,17.992,0,0,1-6.057,13.475,11.2,11.2,0,0,0-3.752,8.371v4.031a6.442,6.442,0,0,1-5.375,6.355A1.636,1.636,0,0,1-349.4-55.19h-2.454a1.643,1.643,0,0,1-1.643-1.475,6.442,6.442,0,0,1-5.375-6.355v-4.227a10.98,10.98,0,0,0-3.752-8.175,18.009,18.009,0,0,1-6.038-14.129,18.114,18.114,0,0,1,17.3-17.386A18.062,18.062,0,0,1-332.577-88.9Z" transform="translate(368.675 106.951)" fill="#cfa44b" stroke="#fff" stroke-width="2" fill-rule="evenodd"/>
      <path id="Path_161" data-name="Path 161" d="M-330.877-65.184a12.3,12.3,0,0,1-11.445,7.8,12.3,12.3,0,0,1-11.444-7.8" transform="translate(360.371 83.686)" fill="none" stroke="#fff" stroke-linecap="round" stroke-width="2" fill-rule="evenodd"/>
      <g id="Group_182" data-name="Group 182" transform="translate(5.001 9.45)">
        <path id="Path_162" data-name="Path 162" d="M-312.578-83.491a3.357,3.357,0,0,1,3.124-2.128,3.358,3.358,0,0,1,3.124,2.128" transform="translate(332.428 85.619)" fill="none" stroke="#fff" stroke-linecap="round" stroke-width="2" fill-rule="evenodd"/>
        <path id="Path_163" data-name="Path 163" d="M-357.387-82.448a3.356,3.356,0,0,1,3.124-2.128,3.357,3.357,0,0,1,3.124,2.128" transform="translate(357.387 85.038)" fill="none" stroke="#fff" stroke-linecap="round" stroke-width="2" fill-rule="evenodd"/>
      </g>
    </g>
  </g>
</svg>
