<svg xmlns="http://www.w3.org/2000/svg" width="72.504" height="85.597" viewBox="0 0 72.504 85.597">
  <g id="Group_192" data-name="Group 192" transform="translate(-30.887 385.758)">
    <path id="Path_168" data-name="Path 168" d="M133.932-256.329,116.284-251.6l8.335,31.108,7.669-7.516,9.979,2.787Z" transform="translate(-53.011 -80.669)" fill="#cfa44b" stroke="#fff" stroke-linejoin="round" stroke-width="2"/>
    <path id="Path_169" data-name="Path 169" d="M93.16-251.6l-17.648-4.729-8.335,31.108,10.4-2.675,7.249,7.4Z" transform="translate(-22.166 -80.669)" fill="#cfa44b" stroke="#fff" stroke-linejoin="round" stroke-width="2"/>
    <g id="Group_189" data-name="Group 189" transform="translate(31.887 -384.758)">
      <path id="Path_170" data-name="Path 170" d="M67.139-384.758c3.753,0,3.1,6.061,7.505,7.242s6.871-4.4,10.121-2.519-.347,6.8,2.879,10.024,8.148-.371,10.024,2.879-3.7,5.714-2.519,10.121,7.242,3.753,7.242,7.505-6.061,3.1-7.242,7.505,4.4,6.871,2.519,10.121-6.8-.347-10.024,2.879.371,8.148-2.879,10.024-5.773-3.714-10.121-2.519-3.753,7.242-7.505,7.242-3.1-6.061-7.505-7.242-6.871,4.4-10.121,2.519.347-6.8-2.879-10.024-8.148.371-10.024-2.879,3.7-5.714,2.519-10.121-7.242-3.753-7.242-7.505,6.061-3.1,7.242-7.505-4.4-6.871-2.519-10.121,6.8.347,10.024-2.879-.371-8.148,2.879-10.024,5.714,3.7,10.121,2.519S63.386-384.758,67.139-384.758Z" transform="translate(-31.887 384.758)" fill="#211f1e" stroke="#fff" stroke-linecap="round" stroke-linejoin="round" stroke-width="2"/>
      <circle id="Ellipse_20" data-name="Ellipse 20" cx="28.765" cy="28.765" r="28.765" transform="translate(6.486 6.486)" fill="#211f1e" stroke="#fff" stroke-linejoin="round" stroke-width="2"/>
    </g>
    <g id="Group_191" data-name="Group 191" transform="translate(47.781 -369.425)">
      <g id="Group_190" data-name="Group 190" transform="translate(8.119 0)">
        <rect id="Rectangle_203" data-name="Rectangle 203" width="22.145" height="22.145" transform="translate(0 19.178) rotate(-60)" fill="#211f1e" stroke="#fff" stroke-linejoin="round" stroke-width="2"/>
        <line id="Line_111" data-name="Line 111" x2="19.178" y2="11.073" transform="translate(3.691 12.786)" fill="#f2633a" stroke="#fff" stroke-linejoin="round" stroke-width="2"/>
        <line id="Line_112" data-name="Line 112" x2="19.178" y2="11.073" transform="translate(7.382 6.393)" fill="#f2633a" stroke="#fff" stroke-linejoin="round" stroke-width="2"/>
        <line id="Line_113" data-name="Line 113" x1="11.073" y2="19.178" transform="translate(12.786 7.382)" fill="#f2633a" stroke="#fff" stroke-linejoin="round" stroke-width="2"/>
        <line id="Line_114" data-name="Line 114" x1="11.073" y2="19.178" transform="translate(6.393 3.691)" fill="#f2633a" stroke="#fff" stroke-linejoin="round" stroke-width="2"/>
      </g>
      <path id="Path_171" data-name="Path 171" d="M95.279-279.189,74.626-291.113,85.7-310.291l16.963,18.317Z" transform="translate(-74.626 322.651)" fill="#cfa44b" stroke="#fff" stroke-linejoin="round" stroke-width="2"/>
      <path id="Path_172" data-name="Path 172" d="M80.229-300.4l23.112,13.344,2.839-4.918L89.218-310.291Z" transform="translate(-78.145 322.651)" fill="#cfa44b" stroke="#fff" stroke-linejoin="round" stroke-width="2"/>
    </g>
  </g>
</svg>
