<svg xmlns="http://www.w3.org/2000/svg" width="93.336" height="90.331" viewBox="0 0 93.336 90.331">
  <g id="Group_144" data-name="Group 144" transform="translate(1.5 1.501)">
    <path id="Path_126" data-name="Path 126" d="M417.84,175.033v-3.341a4.931,4.931,0,0,0-1.339-3.379l-7.3-7.756A8.128,8.128,0,0,1,407,154.991v-30.55a5.416,5.416,0,0,1,5.417-5.417h.007a5.416,5.416,0,0,1,5.417,5.417v9.037" transform="translate(-407 -99.229)" fill="none" stroke="#b7cbc1" stroke-linecap="round" stroke-linejoin="round" stroke-width="3"/>
    <path id="Path_127" data-name="Path 127" d="M451,175.033v-3.341a4.931,4.931,0,0,1,1.339-3.379l7.3-7.756a8.128,8.128,0,0,0,2.206-5.567v-30.55a5.416,5.416,0,0,0-5.417-5.417h-.007A5.416,5.416,0,0,0,451,124.442v9.037" transform="translate(-371.504 -99.229)" fill="none" stroke="#b7cbc1" stroke-linecap="round" stroke-linejoin="round" stroke-width="3"/>
    <path id="Path_128" data-name="Path 128" d="M442.714,161.55v-8.913a2.616,2.616,0,0,0-2.613-2.613H414.613A2.616,2.616,0,0,0,412,152.637v8.913" transform="translate(-402.967 -74.221)" fill="none" stroke="#b7cbc1" stroke-linecap="round" stroke-linejoin="round" stroke-width="3"/>
    <path id="Path_129" data-name="Path 129" d="M435,161.55v-8.913a2.615,2.615,0,0,1,2.613-2.613H463.1a2.616,2.616,0,0,1,2.613,2.613v8.913" transform="translate(-384.412 -74.221)" fill="none" stroke="#b7cbc1" stroke-linecap="round" stroke-linejoin="round" stroke-width="3"/>
    <path id="Path_130" data-name="Path 130" d="M439.983,166.015v-9.921a16.1,16.1,0,0,0-5-11.659c-4.132-3.933-9.894-9.417-13.532-12.882a4.9,4.9,0,0,0-6.838.085l0,0a5,5,0,0,0,0,7.068c3.447,3.449,8.179,8.179,8.179,8.179" transform="translate(-402.042 -90.21)" fill="none" stroke="#b7cbc1" stroke-linecap="round" stroke-linejoin="round" stroke-width="3"/>
    <path id="Path_131" data-name="Path 131" d="M436,166.015v-9.921a16.1,16.1,0,0,1,5-11.659c4.132-3.933,9.894-9.417,13.532-12.882a4.9,4.9,0,0,1,6.838.085l0,0a5,5,0,0,1,0,7.068c-3.447,3.449-8.179,8.179-8.179,8.179" transform="translate(-383.605 -90.21)" fill="none" stroke="#b7cbc1" stroke-linecap="round" stroke-linejoin="round" stroke-width="3"/>
    <path id="Path_132" data-name="Path 132" d="M457.337,125.008l-16.7,18.214-16.7-18.214a10.111,10.111,0,0,1,14.907-13.662l1.789,1.951,1.789-1.951a10.11,10.11,0,0,1,14.907,13.662Z" transform="translate(-395.473 -108.068)" fill="none" stroke="#b7cbc1" stroke-linecap="round" stroke-linejoin="round" stroke-width="3"/>
    <path id="Path_133" data-name="Path 133" d="M438.5,111.335a6,6,0,0,1,.369,8.474" transform="translate(-381.588 -105.433)" fill="none" stroke="#b7cbc1" stroke-linecap="round" stroke-linejoin="round" stroke-width="3"/>
  </g>
</svg>
