<svg xmlns="http://www.w3.org/2000/svg" width="97.922" height="90.763" viewBox="0 0 97.922 90.763">
  <g id="Group_145" data-name="Group 145" transform="translate(1.504 1.504)">
    <path id="Path_134" data-name="Path 134" d="M61.018,94.259l-5.061,5.521L15.013,55.114A24.8,24.8,0,1,1,51.569,21.605l4.388,4.786,4.388-4.786A24.8,24.8,0,1,1,96.9,55.114l-8.991,9.863" transform="translate(-8.5 -13.568)" fill="none" stroke="#b7cbc1" stroke-linecap="round" stroke-linejoin="round" stroke-width="3"/>
    <path id="Path_135" data-name="Path 135" d="M17.178,43.638a17.428,17.428,0,0,1,1.07-24.613" transform="translate(-4.318 -8.005)" fill="none" stroke="#b7cbc1" stroke-linecap="round" stroke-linejoin="round" stroke-width="3"/>
    <path id="Path_136" data-name="Path 136" d="M70.311,45.083a6.059,6.059,0,0,0-6.058-6.058H44.058A6.059,6.059,0,0,0,38,45.083V58.4a15.148,15.148,0,0,0,9.077,13.88l7.078,3.1,7.078-3.1A15.148,15.148,0,0,0,70.311,58.4Z" transform="translate(21.574 12.384)" fill="none" stroke="#b7cbc1" stroke-linecap="round" stroke-linejoin="round" stroke-width="3"/>
    <path id="Path_137" data-name="Path 137" d="M42.75,48.8,47.8,52.841l8.078-7.068" transform="translate(26.416 19.264)" fill="none" stroke="#b7cbc1" stroke-linecap="round" stroke-linejoin="round" stroke-width="3"/>
  </g>
</svg>
