<svg xmlns="http://www.w3.org/2000/svg" width="94.889" height="95.119" viewBox="0 0 94.889 95.119">
  <g id="Group_126" data-name="Group 126" transform="translate(-67.125 -465.591)">
    <g id="Group_100" data-name="Group 100" transform="translate(98.8 499.928)">
      <g id="Group_99" data-name="Group 99">
        <path id="Path_81" data-name="Path 81" d="M157.831,560.38c-.185.443-1.544.294-3.034-.331s-2.548-1.49-2.362-1.933a5.887,5.887,0,0,1,3.034.331C156.959,559.072,158.017,559.938,157.831,560.38Z" transform="translate(-152.414 -558.047)" fill="#c71521"/>
      </g>
    </g>
    <g id="Group_106" data-name="Group 106" transform="translate(72.922 525.817)">
      <g id="Group_101" data-name="Group 101">
        <path id="Path_82" data-name="Path 82" d="M96.676,631.848a5.426,5.426,0,0,1,.558,3.732.951.951,0,0,1-.244.371l.1.1a2.881,2.881,0,0,1,.472-.315l1.234-.694.086.153-4.894,2.777-.173-.3,1.567-.893c1.5-.9,1.83-3.206.932-4.91-1.487-2.822-4.289-3.287-8-1.328-4.119,2.17-5.5,4.924-3.95,7.867a4.648,4.648,0,0,0,4.368,2.587l.039.348a4.777,4.777,0,0,1-4.734-2.807c-1.907-3.615-.628-7.368,3.194-9.383C91,627.164,94.776,628.243,96.676,631.848Z" transform="translate(-82.999 -628.014)" fill="#cfa44b"/>
        <path id="Path_83" data-name="Path 83" d="M88,641.266a4.985,4.985,0,0,1-4.375-2.918,6.741,6.741,0,0,1-.561-5.414,7.563,7.563,0,0,1,3.82-4.178c3.841-2.024,7.723-.915,9.661,2.762h0a5.608,5.608,0,0,1,.572,3.838c-.006.019-.012.038-.02.057l.118-.068,1.368-.769.238.422-5.162,2.929-.326-.573,1.7-.969c1.378-.828,1.778-2.983.871-4.7a4.173,4.173,0,0,0-3.055-2.376,7.709,7.709,0,0,0-4.74,1.112,8.995,8.995,0,0,0-4.035,3.577,4.258,4.258,0,0,0,.15,4.082,4.46,4.46,0,0,0,4.217,2.505l.151-.015.072.653-.153.017A4.527,4.527,0,0,1,88,641.266Zm2.648-13.194a7.785,7.785,0,0,0-3.621.959,7.266,7.266,0,0,0-3.671,4,6.442,6.442,0,0,0,.542,5.17,4.636,4.636,0,0,0,4.427,2.74l0-.044a4.822,4.822,0,0,1-4.368-2.681,4.552,4.552,0,0,1-.153-4.365,9.283,9.283,0,0,1,4.167-3.712A8.01,8.01,0,0,1,92.9,629a4.467,4.467,0,0,1,3.278,2.538c.981,1.861.528,4.2-.989,5.114l-1.436.818.02.036,2.895-1.643-.167-.174.112-.107a.8.8,0,0,0,.2-.3,5.3,5.3,0,0,0-.547-3.614A6.267,6.267,0,0,0,90.651,628.072Z" transform="translate(-82.733 -627.757)" fill="#cfa44b"/>
      </g>
      <g id="Group_102" data-name="Group 102" transform="translate(14.625 14.676)">
        <path id="Path_84" data-name="Path 84" d="M123.642,671.344c2.166-3.7,6.1-4.7,9.839-2.516a7.152,7.152,0,1,1-7.226,12.343C122.517,678.982,121.472,675.052,123.642,671.344Zm10.78,6.739c2.35-4.017,1.936-7.164-1.185-8.992-3.057-1.789-5.841-.807-7.956,2.806-2.353,4.017-1.932,7.167,1.2,9C129.528,682.682,132.307,681.7,134.423,678.083Z" transform="translate(-122.371 -667.53)" fill="#cfa44b"/>
        <path id="Path_85" data-name="Path 85" d="M129.888,682.2a7.853,7.853,0,0,1-3.968-1.155,6.954,6.954,0,0,1-2.668-10.039l.133.078-.133-.078c2.2-3.768,6.244-4.8,10.051-2.571a7.333,7.333,0,0,1,3.572,4.419,7.949,7.949,0,0,1-5.35,9.138A6.472,6.472,0,0,1,129.888,682.2Zm-.586-14.614a7.095,7.095,0,0,0-3.225,13.192,7,7,0,1,0,7.07-12.076A7.616,7.616,0,0,0,129.3,667.588Zm-.209,14.074a5.831,5.831,0,0,1-2.945-.888,5.121,5.121,0,0,1-2.733-3.795,8.7,8.7,0,0,1,1.476-5.418c2.148-3.671,5.049-4.687,8.168-2.862,3.182,1.864,3.622,5.133,1.24,9.2h0a7.428,7.428,0,0,1-3.7,3.5A4.47,4.47,0,0,1,129.093,681.662Zm1-13.549c-1.858,0-3.531,1.212-4.931,3.6a8.409,8.409,0,0,0-1.436,5.221,5.537,5.537,0,0,0,6.771,4.173,7.134,7.134,0,0,0,3.539-3.363h0c2.315-3.956,1.924-6.992-1.129-8.781A5.587,5.587,0,0,0,130.089,668.114Z" transform="translate(-122.114 -667.273)" fill="#cfa44b"/>
      </g>
      <g id="Group_103" data-name="Group 103" transform="translate(37.617 19.778)">
        <path id="Path_86" data-name="Path 86" d="M191.041,681.949a5.423,5.423,0,0,1,3.593,1.15.94.94,0,0,1,.224.384l.135-.044a2.837,2.837,0,0,1-.073-.562l-.078-1.414.175-.01.327,5.617-.35.021-.107-1.8c-.144-1.748-2.066-3.06-3.991-3.008-3.188.086-4.844,2.392-4.731,6.591.124,4.653,1.983,7.111,5.308,7.021a4.646,4.646,0,0,0,4.252-2.772l.329.119a4.777,4.777,0,0,1-4.61,3c-4.085.11-6.886-2.7-7-7.014C184.327,684.972,186.967,682.059,191.041,681.949Z" transform="translate(-184.283 -681.289)" fill="#cfa44b"/>
        <path id="Path_87" data-name="Path 87" d="M190.953,696.127c-4.038,0-6.811-2.853-6.928-7.168-.117-4.339,2.6-7.33,6.75-7.442h0a5.658,5.658,0,0,1,3.695,1.185c.014.014.029.028.043.044q0-.066-.009-.138l-.086-1.567.483-.029.345,5.927-.659.039-.116-1.953c-.132-1.6-1.891-2.922-3.833-2.863-3.107.083-4.691,2.307-4.58,6.432a9,9,0,0,0,1.422,5.2,4.236,4.236,0,0,0,3.727,1.67,4.462,4.462,0,0,0,4.112-2.673l.055-.142.617.223-.052.146a4.9,4.9,0,0,1-4.751,3.107Zm-.17-14.3c-3.969.107-6.56,2.97-6.449,7.124.111,4.133,2.762,6.867,6.621,6.867l.223,0a4.629,4.629,0,0,0,4.414-2.758l-.04-.014a4.8,4.8,0,0,1-4.336,2.731,4.556,4.556,0,0,1-3.982-1.793,9.291,9.291,0,0,1-1.485-5.378c-.115-4.265,1.619-6.662,4.881-6.75l.12,0c2.056,0,3.887,1.422,4.029,3.152l.1,1.648.042,0-.193-3.321-.231.074-.046-.149a.772.772,0,0,0-.183-.316,5.242,5.242,0,0,0-3.482-1.109Z" transform="translate(-184.021 -681.012)" fill="#cfa44b"/>
      </g>
      <g id="Group_104" data-name="Group 104" transform="translate(56.843 13.638)">
        <path id="Path_88" data-name="Path 88" d="M237.5,676.144c-2.339-3.59-1.48-7.561,2.148-9.927a7.153,7.153,0,1,1,7.812,11.983C243.835,680.566,239.851,679.745,237.5,676.144Zm10.849-6.631c-2.542-3.9-5.543-4.935-8.573-2.959-2.967,1.934-3.334,4.864-1.048,8.372,2.543,3.9,5.548,4.932,8.59,2.949C250.279,675.949,250.639,673.022,248.353,669.514Z" transform="translate(-236.047 -664.737)" fill="#cfa44b"/>
        <path id="Path_89" data-name="Path 89" d="M243.026,679.434a7.025,7.025,0,0,1-5.908-3.462h0c-2.383-3.657-1.5-7.733,2.193-10.141a7.307,7.307,0,1,1,7.981,12.243A7.822,7.822,0,0,1,243.026,679.434Zm-5.649-3.631a7.047,7.047,0,1,0,2.1-9.713,6.664,6.664,0,0,0-2.1,9.713Zm6.705,2.945c-2.044,0-4.014-1.351-5.737-3.994-2.322-3.565-1.934-6.614,1.093-8.587a5.1,5.1,0,0,1,4.605-.741,8.734,8.734,0,0,1,4.183,3.745h0a7.431,7.431,0,0,1,1.475,4.878,5.151,5.151,0,0,1-2.551,3.7A5.6,5.6,0,0,1,244.082,678.748ZM242.5,665.474a5.291,5.291,0,0,0-2.9.952c-2.9,1.891-3.248,4.713-1,8.159,2.5,3.839,5.4,4.844,8.377,2.9a4.861,4.861,0,0,0,2.413-3.478,7.139,7.139,0,0,0-1.428-4.671,8.436,8.436,0,0,0-4.024-3.622A4.381,4.381,0,0,0,242.5,665.474Z" transform="translate(-235.79 -664.48)" fill="#cfa44b"/>
      </g>
      <g id="Group_105" data-name="Group 105" transform="translate(69.284 0.874)">
        <path id="Path_90" data-name="Path 90" d="M275.352,632.209c-1.47-.793-2.625-.5-3.334.812a2.708,2.708,0,0,0,.9,3.91l1.034.624-.163.309-3.942-2.366.092-.171.881.54a3.434,3.434,0,0,1,.511.364l.1-.1a1.323,1.323,0,0,1-.245-.486,4.481,4.481,0,0,1,.519-2.77c1.193-2.217,2.808-2.886,4.611-1.915l8.465,4.559c.685.369.9.419,1.178-.1.056-.1.094-.214.167-.351l.14-.3.159.073a10.291,10.291,0,0,0-.643,2.1l-.138-.074c-.77-.416-2.222-.8-2.83-1.1l-.092.172c1.779,1.62,1.89,3.139,1.225,4.373-1,1.851-2.868,2.633-4.553,1.725-2.138-1.152-2.575-3.757-1.091-6.511l.72-1.336Zm3.3,3.391a3.456,3.456,0,0,0,1.538,4.94c1.409.759,2.769.483,3.4-.689.646-1.2.241-3.075-2.209-4.395l-2.056-1.107Z" transform="translate(-269.639 -630.371)" fill="#cfa44b"/>
        <path id="Path_91" data-name="Path 91" d="M280.5,642.3a3.216,3.216,0,0,1-1.531-.4c-2.213-1.192-2.677-3.893-1.154-6.721l.646-1.2-3.53-1.9a2.62,2.62,0,0,0-1.842-.37,2.051,2.051,0,0,0-1.282,1.119,2.553,2.553,0,0,0,.841,3.7l1.159.7-.307.584-4.209-2.527.24-.445,1.02.626c.068.043.131.083.188.121a.746.746,0,0,1-.057-.194,4.65,4.65,0,0,1,.536-2.863c1.231-2.286,2.943-2.99,4.821-1.977l8.465,4.559a1.67,1.67,0,0,0,.664.265c.071,0,.159-.027.3-.3.025-.046.046-.094.068-.144s.058-.132.1-.208l.2-.432.434.2-.056.137a10.135,10.135,0,0,0-.634,2.067l-.039.208-.324-.175a12.6,12.6,0,0,0-1.633-.646c-.321-.111-.628-.218-.881-.318,1.809,1.785,1.567,3.337,1.025,4.342a4.19,4.19,0,0,1-2.1,1.968A3.119,3.119,0,0,1,280.5,642.3Zm-5.422-10.491,3.8,2.048-.793,1.472c-1.435,2.665-1.022,5.2,1.028,6.3a2.8,2.8,0,0,0,2.405.164,3.883,3.883,0,0,0,1.938-1.826c.733-1.36.321-2.808-1.193-4.186l-.089-.081.221-.41.134.067a11.169,11.169,0,0,0,1.155.44,13.339,13.339,0,0,1,1.632.642,9.619,9.619,0,0,1,.254-.954.537.537,0,0,1-.4.2,1.829,1.829,0,0,1-.82-.3l-8.465-4.559c-1.727-.928-3.25-.289-4.4,1.852a4.34,4.34,0,0,0-.5,2.675,1.2,1.2,0,0,0,.205.4l.1.108-.158.167,2.248,1.35.019-.035-.909-.549a2.867,2.867,0,0,1-.954-4.116,2.344,2.344,0,0,1,1.481-1.273,2.909,2.909,0,0,1,2.063.4Zm6.3,9.047a3.417,3.417,0,0,1-1.608-.443,3.611,3.611,0,0,1-1.6-5.15l.747-1.387,2.192,1.181a4.959,4.959,0,0,1,2.335,2.319,2.618,2.618,0,0,1-.063,2.285A2.2,2.2,0,0,1,281.377,640.86ZM279.04,634.3l-.6,1.114a3.319,3.319,0,0,0,1.475,4.732c1.344.722,2.6.477,3.19-.627a2.312,2.312,0,0,0,.05-2.019,4.66,4.66,0,0,0-2.2-2.166Z" transform="translate(-269.289 -630.11)" fill="#cfa44b"/>
      </g>
    </g>
    <g id="Group_113" data-name="Group 113" transform="translate(67.125 465.591)">
      <g id="Group_107" data-name="Group 107" transform="translate(0 34.02)">
        <path id="Path_92" data-name="Path 92" d="M81.724,569.605l.151-.708c.206-.972.127-1.094-.844-1.3l-12.024-2.56c-.972-.207-1.095-.127-1.3.844l-.151.709-.182-.04,1.052-4.939c.613-2.879,2.244-4.537,4.078-4.147a3.243,3.243,0,0,1,2.214,3.519l.08.017a4.763,4.763,0,0,1,5.322-3.522c2.531.539,3.689,3.346,3.02,6.483l-1.211,5.688Zm.972-5.359c.535-2.514-.646-4.518-2.955-5.009a4.181,4.181,0,0,0-5.088,3.424l-.228,1.073-.344-.073.172-.81a2.879,2.879,0,0,0-2.078-3.659c-1.639-.349-3.019.762-3.449,2.778l-.348,1.641.02,0a1.444,1.444,0,0,1,1.126-.12l11.68,2.488a1.385,1.385,0,0,1,.959.564l.041.008Z" transform="translate(-67.28 -557.32)" fill="#cfa44b"/>
        <path id="Path_93" data-name="Path 93" d="M81.831,569.613l-.354-.075.167-.784c.2-.932.147-1.011-.785-1.21l-12.025-2.56c-.463-.1-.725-.13-.879-.03s-.232.353-.33.816l-.167.785-.334-.073,1.068-5.014c.62-2.915,2.3-4.609,4.17-4.207a3.274,3.274,0,0,1,2.285,3.329,4.818,4.818,0,0,1,5.33-3.315,3.9,3.9,0,0,1,2.765,2.311,6.976,6.976,0,0,1,.315,4.264Zm-.17-.194.051.011,1.194-5.612a6.82,6.82,0,0,0-.3-4.169,3.7,3.7,0,0,0-2.655-2.223,4.678,4.678,0,0,0-5.231,3.468l-.02.069-.216-.046,0-.067a3.167,3.167,0,0,0-2.153-3.438c-1.784-.378-3.386,1.263-3.987,4.088l-1.036,4.864.031.007.135-.633c.109-.515.2-.783.4-.913s.481-.1,1,.009l12.025,2.56c1.008.215,1.118.384.9,1.393Zm.449-2.9-.148-.028-.018-.028a1.307,1.307,0,0,0-.91-.531l-11.68-2.487a1.368,1.368,0,0,0-1.068.109l-.026.017-.128-.023.365-1.718c.438-2.055,1.862-3.2,3.54-2.838a2.962,2.962,0,0,1,2.137,3.751l-.156.734.193.041.212-1a4.271,4.271,0,0,1,5.18-3.483c2.346.5,3.557,2.549,3.014,5.1ZM68.89,563.235a2.388,2.388,0,0,1,.5.058l11.68,2.487a1.521,1.521,0,0,1,.936.5l.463-2.175c.524-2.461-.64-4.437-2.895-4.918a4.124,4.124,0,0,0-5,3.364l-.244,1.149-.5-.105.188-.885A2.814,2.814,0,0,0,72,559.141c-1.59-.335-2.938.754-3.357,2.719l-.316,1.491A1.28,1.28,0,0,1,68.89,563.235Z" transform="translate(-67.125 -557.194)" fill="#cfa44b"/>
      </g>
      <g id="Group_108" data-name="Group 108" transform="translate(8.518 15.041)">
        <path id="Path_94" data-name="Path 94" d="M96.8,508.221c-1.358-1.144-2.624-1.093-3.647.122a2.881,2.881,0,0,0,.084,4.265l.942.874-.237.287-3.59-3.32.133-.159.8.755a3.664,3.664,0,0,1,.453.49l.126-.085a1.412,1.412,0,0,1-.151-.559,4.783,4.783,0,0,1,1.143-2.772c1.724-2.048,3.549-2.394,5.217-.992l7.822,6.585c.633.533.847.633,1.247.158.08-.1.144-.2.251-.331l.211-.282.149.11a10.99,10.99,0,0,0-1.125,2.044l-.126-.106c-.712-.6-2.14-1.315-2.707-1.766l-.134.158c1.5,2.074,1.286,3.679.326,4.819-1.44,1.71-3.558,2.118-5.116.807-1.976-1.663-1.864-4.47.279-7.017l1.04-1.234Zm2.7,4.248a3.675,3.675,0,0,0,.528,5.477c1.3,1.1,2.777,1.1,3.688.022.934-1.109.92-3.149-1.345-5.056l-1.9-1.6Z" transform="translate(-90.241 -506.209)" fill="#cfa44b"/>
        <path id="Path_95" data-name="Path 95" d="M100.758,520.063a3.266,3.266,0,0,1-2.124-.8,3.9,3.9,0,0,1-1.432-3.239,6.574,6.574,0,0,1,1.7-3.887l.99-1.175-3.33-2.8a2.877,2.877,0,0,0-1.9-.806,2.262,2.262,0,0,0-1.641.918,2.794,2.794,0,0,0,.078,4.158l1,.924-.336.406-3.7-3.426.233-.278.859.811a4.646,4.646,0,0,1,.419.44l.008-.006a1.4,1.4,0,0,1-.129-.539,4.869,4.869,0,0,1,1.161-2.816c1.742-2.069,3.633-2.424,5.326-1l7.821,6.585c.65.547.8.57,1.138.168.036-.042.068-.088.1-.136s.089-.124.148-.195l.254-.34.271.2-.042.061a10.954,10.954,0,0,0-1.118,2.03l-.04.1-.207-.173a13.387,13.387,0,0,0-1.572-1.035c-.419-.25-.815-.488-1.075-.683l-.047.056c1.66,2.329,1.074,3.93.287,4.865A4.127,4.127,0,0,1,100.758,520.063Zm-4.094-12.021,3.449,2.9-1.09,1.293a6.421,6.421,0,0,0-1.666,3.793,3.747,3.747,0,0,0,1.377,3.115c1.495,1.258,3.553.929,5.007-.8,1.087-1.29.973-2.923-.329-4.724l-.036-.049.221-.262.059.046a12,12,0,0,0,1.118.717,13.462,13.462,0,0,1,1.592,1.05l.046.038a11.076,11.076,0,0,1,1.051-1.9l-.028-.021-.165.221c-.059.07-.1.131-.144.188s-.072.1-.11.146c-.448.531-.727.382-1.356-.149l-7.822-6.585c-1.639-1.379-3.406-1.04-5.108.982a4.717,4.717,0,0,0-1.125,2.727,1.359,1.359,0,0,0,.14.513l.039.063-.229.154,2.2,2.03.139-.168L93,512.545a2.967,2.967,0,0,1-.091-4.372,2.409,2.409,0,0,1,1.754-.973,3.009,3.009,0,0,1,2,.842Zm-6.391,2.28,1.19,1.1a4.38,4.38,0,0,0-.418-.442l-.738-.7Zm11.575,8.41h-.014a3.243,3.243,0,0,1-2.04-.846,4.045,4.045,0,0,1-1.526-2.7,3.869,3.869,0,0,1,.989-2.889l1.022-1.215,1.959,1.649a5.19,5.19,0,0,1,1.9,2.872,2.7,2.7,0,0,1-.544,2.293A2.227,2.227,0,0,1,101.848,518.732ZM100.3,511.3l-.922,1.1a3.715,3.715,0,0,0-.953,2.774,3.89,3.89,0,0,0,1.472,2.594,3.085,3.085,0,0,0,1.941.81h.013a2.075,2.075,0,0,0,1.625-.778,2.546,2.546,0,0,0,.51-2.164,5.037,5.037,0,0,0-1.846-2.782Z" transform="translate(-90.06 -506.09)" fill="#cfa44b"/>
      </g>
      <g id="Group_109" data-name="Group 109" transform="translate(24.876 2.649)">
        <path id="Path_96" data-name="Path 96" d="M139.788,489.125l.673-.266c.923-.366.982-.5.616-1.424l-4.534-11.451c-.366-.923-.5-.982-1.423-.616l-.674.266-.068-.173,5.022-1.988c3.079-1.22,5.8-.315,6.81,2.245a4.5,4.5,0,0,1-2.434,5.772l-.377.172.046.115a3.21,3.21,0,0,1,2.662.482l1.564,1.139c.8.585,1.926,1.526,2.668,1.233a.9.9,0,0,0,.459-.448l.279-.533.16.1-.278.533a2.7,2.7,0,0,1-1.3,1.37c-.986.39-2.05-.343-3.026-1.038l-2.17-1.545c-1.024-.731-1.626-1.07-2.493-.727l-.231.091-.129-.327.886-.35c2.339-.926,3.052-2.806,2.036-5.371s-2.814-3.427-5.153-2.5l-2,.792.008.019a1.437,1.437,0,0,1,.723.871l4.465,11.276c.366.924.52.974,1.443.609l1.117-.442.068.173-5.349,2.118Z" transform="translate(-134.278 -472.858)" fill="#cfa44b"/>
        <path id="Path_97" data-name="Path 97" d="M139.643,489.266l-.125-.317.745-.295c.886-.351.924-.437.573-1.324L136.3,475.88c-.351-.885-.438-.923-1.323-.572l-.746.295-.125-.316,5.094-2.017a6.2,6.2,0,0,1,4.232-.3,4.272,4.272,0,0,1,2.678,2.585,4.6,4.6,0,0,1-2.471,5.869l-.231.106a3.307,3.307,0,0,1,2.573.533l1.564,1.139.278.205c.756.562,1.694,1.262,2.316,1.018a.841.841,0,0,0,.419-.412l.316-.6.294.174-.312.6a2.779,2.779,0,0,1-1.336,1.406c-1.046.413-2.184-.4-3.1-1.047L144.253,483c-1.027-.733-1.6-1.043-2.419-.719l-.3.12-.186-.471.958-.379a3.64,3.64,0,0,0,2.232-2.027,5.419,5.419,0,0,0-2.28-5.757,3.649,3.649,0,0,0-3.012.057l-1.86.736a1.614,1.614,0,0,1,.632.846l4.465,11.276c.347.878.448.919,1.343.566l1.189-.47.125.317Zm.075-.23.012.03L144.936,487l-.012-.03-1.045.413c-.975.386-1.163.308-1.543-.652l-4.465-11.276a1.359,1.359,0,0,0-.682-.828l-.029-.013-.049-.121,2.075-.821a3.794,3.794,0,0,1,3.137-.052,5.567,5.567,0,0,1,2.357,5.951,3.789,3.789,0,0,1-2.32,2.115l-.814.322.072.183.159-.063c.921-.364,1.584.035,2.566.736l2.17,1.545c.884.63,1.983,1.413,2.952,1.029a2.637,2.637,0,0,0,1.256-1.334l.244-.468-.027-.016-.241.461a.989.989,0,0,1-.5.484c-.7.277-1.679-.452-2.465-1.038l-.277-.2-1.564-1.139a3.138,3.138,0,0,0-2.6-.47l-.067.018-.1-.248.444-.2a4.4,4.4,0,0,0,2.394-5.673,4.121,4.121,0,0,0-2.583-2.495,6.053,6.053,0,0,0-4.127.293l-4.951,1.96.012.029.6-.238c.957-.38,1.143-.3,1.524.659l4.533,11.451c.38.959.3,1.144-.66,1.524Z" transform="translate(-134.108 -472.725)" fill="#cfa44b"/>
      </g>
      <g id="Group_110" data-name="Group 110" transform="translate(53.65)">
        <path id="Path_98" data-name="Path 98" d="M221.326,470.89c.513-1.7-.036-2.844-1.555-3.3a2.881,2.881,0,0,0-3.884,1.765l-.43,1.211-.358-.1,1.629-4.611.2.06-.375,1.032a3.779,3.779,0,0,1-.271.61l.126.082a1.434,1.434,0,0,1,.455-.361,4.784,4.784,0,0,1,3-.047c2.563.774,3.605,2.314,2.975,4.4l-2.955,9.789c-.239.793-.245,1.03.349,1.208.118.036.245.052.4.1l.342.082-.043.181a10.946,10.946,0,0,0-2.322-.225l.048-.158c.269-.892.361-2.486.551-3.185l-.2-.06c-1.312,2.2-2.871,2.636-4.3,2.206-2.14-.645-3.352-2.43-2.764-4.38.747-2.473,3.368-3.481,6.554-2.519l1.546.466Zm-2.834,4.16a3.679,3.679,0,0,0-4.823,2.653c-.491,1.629.085,2.988,1.44,3.4,1.387.419,3.257-.4,4.112-3.234l.717-2.379Z" transform="translate(-211.719 -465.753)" fill="#cfa44b"/>
        <path id="Path_99" data-name="Path 99" d="M220.856,482.915l-.073-.014a10.8,10.8,0,0,0-2.307-.223h-.106l.078-.26a13.425,13.425,0,0,0,.329-1.848c.065-.485.126-.946.2-1.263l-.07-.022c-1.483,2.447-3.185,2.543-4.356,2.188-2.248-.678-3.406-2.519-2.816-4.476.758-2.509,3.431-3.542,6.651-2.571l1.472.443,1.258-4.166c.5-1.65-.023-2.759-1.5-3.206a2.8,2.8,0,0,0-3.789,1.717l-.455,1.279-.506-.147.027-.077,1.654-4.681.347.106-.4,1.108a5,5,0,0,1-.24.559l.008,0a1.416,1.416,0,0,1,.443-.332,5.46,5.46,0,0,1,5.772,1.691,3.116,3.116,0,0,1,.3,2.759l-2.955,9.789c-.138.456-.192.715-.11.868.055.1.176.175.407.244.053.016.107.027.166.04s.15.033.237.059l.413.1Zm-2.224-.393a11.1,11.1,0,0,1,2.108.214l.008-.035-.267-.064c-.087-.026-.161-.042-.23-.057s-.121-.027-.178-.044a.755.755,0,0,1-.5-.319c-.109-.2-.055-.479.1-.986l2.955-9.789a2.968,2.968,0,0,0-.28-2.627,5.306,5.306,0,0,0-5.593-1.632,1.391,1.391,0,0,0-.418.333l-.043.06-.23-.15-1,2.82.209.061.406-1.142a2.967,2.967,0,0,1,3.979-1.813c1.578.477,2.133,1.652,1.607,3.4l-1.3,4.314-1.62-.488c-3.132-.944-5.727.047-6.458,2.467-.564,1.87.551,3.631,2.713,4.284,1.616.488,3.071-.263,4.21-2.171l.031-.052.328.1-.02.072a11.945,11.945,0,0,0-.218,1.316,13.486,13.486,0,0,1-.334,1.871l-.017.058Zm-1.988-16.739-.54,1.529a4.337,4.337,0,0,0,.242-.56l.347-.954Zm-.974,15.335a2.492,2.492,0,0,1-.716-.1c-1.395-.421-1.994-1.825-1.491-3.493a3.758,3.758,0,0,1,4.919-2.7l1.519.459-.739,2.453C218.435,480.135,216.963,481.117,215.67,481.117Zm1.421-6.345a3.606,3.606,0,0,0-3.481,2.793c-.476,1.579.082,2.906,1.389,3.3,1.921.58,3.43-1.243,4.015-3.183l.695-2.3-1.372-.414A4.31,4.31,0,0,0,217.091,474.772Z" transform="translate(-211.586 -465.591)" fill="#cfa44b"/>
      </g>
      <g id="Group_111" data-name="Group 111" transform="translate(66.879 9.685)">
        <path id="Path_100" data-name="Path 100" d="M247.632,501.747l.515.508c.707.7.854.7,1.551-.012l8.281-8.4a.655.655,0,0,0-.02-.955c-.019-.018-.039-.036-.06-.054l-.942-.784.072-.1,1.368.882a1.642,1.642,0,0,0,2.15,0l.059-.059.118.117-1.9,1.93c-.233.236-1.41,1.4-1.555,1.518l.1.1a7.844,7.844,0,0,1,1.181-.726,4.038,4.038,0,0,1,4.73.6c1.592,1.569,1.6,3.33.282,4.665l-7.469,7.574c-.7.707-.7.853.011,1.551l.531.523-.131.132-3.757-3.7.13-.133,1.43,1.41.029-.03c0-.2.012-.279.245-.514l7.584-7.691c1.426-1.447,1.785-2.629.75-3.649-1.5-1.482-4.076-1.171-6.2.979l-5.869,5.954c-.7.707-.681.868.025,1.565l.516.508-.131.133L247.5,501.88Z" transform="translate(-247.391 -491.846)" fill="#cfa44b"/>
        <path id="Path_101" data-name="Path 101" d="M256.318,510.688l-3.866-3.812.238-.244L254.076,508c.013-.146.066-.246.264-.445l7.584-7.691a4.411,4.411,0,0,0,1.278-1.947,1.612,1.612,0,0,0-.527-1.592c-1.5-1.483-4.064-1.073-6.088.979l-5.869,5.953c-.662.671-.66.78.025,1.456l.57.563-.24.243-3.867-3.814.24-.242.57.563c.335.331.54.5.722.5h0c.183,0,.385-.173.718-.51l8.281-8.4a.58.58,0,0,0-.019-.846.727.727,0,0,0-.055-.049l-1-.83.156-.222,1.43.923a1.554,1.554,0,0,0,2.053.01l.113-.114.228.225L258.69,494.7c-.185.188-1.123,1.116-1.459,1.43a8.543,8.543,0,0,1,1.1-.66,4.13,4.13,0,0,1,4.819.611,3.78,3.78,0,0,1,1.254,2.472,3.066,3.066,0,0,1-.972,2.3l-7.469,7.573c-.668.678-.668.772.01,1.442l.586.577Zm-3.648-3.814,3.647,3.6.022-.022-.475-.469c-.734-.725-.736-.927-.011-1.661l7.468-7.573a2.916,2.916,0,0,0,.928-2.187,3.635,3.635,0,0,0-1.208-2.369,3.979,3.979,0,0,0-4.641-.582,7.867,7.867,0,0,0-1.167.717l-.053.043-.214-.211.067-.055c.139-.113,1.307-1.265,1.549-1.512l1.849-1.875-.008-.008,0,0a1.7,1.7,0,0,1-2.248.01L257,491.967l.761.633c.023.018.045.038.065.058a.73.73,0,0,1,.021,1.065l-8.282,8.4c-.37.375-.588.554-.826.556h0c-.238,0-.458-.176-.83-.543l-.46-.454-.022.022,3.647,3.6.022-.023-.461-.454c-.746-.737-.75-.94-.026-1.675l5.869-5.953c2.086-2.115,4.738-2.526,6.307-.98a1.757,1.757,0,0,1,.569,1.737,4.552,4.552,0,0,1-1.318,2.021l-7.584,7.691c-.224.226-.224.28-.222.459v.032l-.106.108-1.43-1.41Z" transform="translate(-247.206 -491.668)" fill="#cfa44b"/>
      </g>
      <g id="Group_112" data-name="Group 112" transform="translate(78.572 29.288)">
        <path id="Path_102" data-name="Path 102" d="M279.121,548.182l.172.7c.235.966.361,1.042,1.326.806L292.4,546.82c.965-.235,1.222-.4.987-1.369l-.172-.7.181-.044,1.383,5.67c1.15,4.717-.972,8.565-5.3,9.621s-8-1.38-9.154-6.1l-1.382-5.669Zm1.431,5.083c1.057,4.34,4.034,6.089,8.5,5s6.287-4.007,5.229-8.346l-.519-2.131-.02,0a1.2,1.2,0,0,1-.862.573l-11.8,2.877a1.2,1.2,0,0,1-1.028-.112l-.02,0Z" transform="translate(-278.847 -544.61)" fill="#cfa44b"/>
        <path id="Path_103" data-name="Path 103" d="M287.358,560.157c-3.485,0-6.29-2.388-7.269-6.4l-1.4-5.745.331-.081.19.778c.111.46.2.711.354.806s.419.056.878-.056l11.782-2.872a1.688,1.688,0,0,0,.9-.384c.134-.166.142-.424.029-.891l-.19-.779.332-.081.018.075,1.383,5.67c1.157,4.747-1,8.651-5.36,9.714A8.362,8.362,0,0,1,287.358,560.157Zm-8.483-12.031,1.365,5.594c1.136,4.658,4.779,7.086,9.06,6.041s6.381-4.87,5.247-9.527l-1.365-5.6-.031.007.154.629c.254,1.043-.085,1.229-1.044,1.463l-11.782,2.872c-.511.125-.791.162-1,.038s-.3-.39-.424-.9l-.153-.629ZM286.47,558.5a6.1,6.1,0,0,1-3.143-.79,6.9,6.9,0,0,1-3.008-4.584l-.538-2.208.127-.03.028.016a1.129,1.129,0,0,0,.97.1l11.8-2.877a1.127,1.127,0,0,0,.814-.537l.017-.029.127-.026.537,2.2a6.918,6.918,0,0,1-.556,5.452,7.33,7.33,0,0,1-4.73,2.987A10.373,10.373,0,0,1,286.47,558.5Zm-6.484-7.391.483,1.98a6.756,6.756,0,0,0,2.936,4.487,8.655,8.655,0,0,0,10.109-2.464,6.769,6.769,0,0,0,.537-5.333l-.482-1.98a1.317,1.317,0,0,1-.825.482l-11.8,2.877A1.322,1.322,0,0,1,279.986,551.11Z" transform="translate(-278.689 -544.452)" fill="#cfa44b"/>
      </g>
    </g>
    <g id="Group_115" data-name="Group 115" transform="translate(109.578 528.568)">
      <g id="Group_114" data-name="Group 114">
        <path id="Path_104" data-name="Path 104" d="M181.435,635.164" transform="translate(-181.435 -635.164)" fill="#cfa44b" stroke="#b8a588" stroke-miterlimit="10" stroke-width="0.25"/>
      </g>
    </g>
    <g id="Group_119" data-name="Group 119" transform="translate(94.014 487.835)">
      <g id="Group_116" data-name="Group 116" transform="translate(29.383 17.665)">
        <path id="Path_105" data-name="Path 105" d="M231,573.052l-1.176.73.862-.525Z" transform="translate(-225.67 -573.052)" fill="#cfa44b"/>
        <path id="Path_106" data-name="Path 106" d="M221.073,581.824l-2.428,1.432,1.689-.973Z" transform="translate(-218.644 -578.566)" fill="#cfa44b"/>
      </g>
      <g id="Group_118" data-name="Group 118" transform="translate(15.424 42.451)">
        <g id="Group_117" data-name="Group 117">
          <path id="Path_107" data-name="Path 107" d="M181.059,639.791" transform="translate(-181.059 -639.791)" fill="#cfa44b" stroke="#b8a588" stroke-miterlimit="10" stroke-width="0.25"/>
        </g>
      </g>
      <path id="Path_108" data-name="Path 108" d="M180.973,535.53c-6.293,4.274-19.621,13.1-25.4,17.011l25.682-19.23-.092-.124L152.5,553.59l28.614-22-.094-.123L152.6,552.505l27.94-23.145-.1-.12-28.08,22.509,27.266-24.034-.1-.117L153.1,550.115l25.172-23.6-.1-.114-23.3,20.633c4.906-4.919,17.61-17.733,21.213-21.437l-.11-.108c-3.055,3.053-12.47,12.084-20.715,19.966-5.583,5.337-9.993,9.552-10.356,9.942-.181.193-.352.39-.519.581-.173.014-.32.022-.459.023a2.183,2.183,0,0,1-1.32-.327,2.018,2.018,0,0,1-.663-1,4.437,4.437,0,0,1,.192-3.405,6.974,6.974,0,0,1,3.08-2.882c.462-.256.946-.495,1.413-.726a19.561,19.561,0,0,0,2.4-1.331,5.367,5.367,0,0,0,2.117-2.464,2.947,2.947,0,0,0-.421-2.936l-.012-.026-.016-.005c-.04-.045-.077-.095-.121-.137a4.632,4.632,0,0,0-2.184-.946c-.169-.041-.338-.082-.5-.127a12.513,12.513,0,0,1-2.867-1.218l-.081-.046a8.431,8.431,0,0,1-.763-.535,10.61,10.61,0,0,0-1.158-.793,1.678,1.678,0,0,0-1.021-.3l-.151.024.01.01-.04.006.108.107c1.037,1.017,1.64,1.584,2.081,2a14.007,14.007,0,0,1,1.345,1.385,6.743,6.743,0,0,1,.578.828,3.131,3.131,0,0,0,.67.726,2.35,2.35,0,0,1,.71.843c.528,1.317-.491,2.754-1.662,3.532-.252.168-.5.333-.754.5-2.773,1.811-5.392,3.522-5.365,7.5a7.476,7.476,0,0,0,2.668,5.628c3.158,2.859,8.5,4.2,12.416,4.826a58.756,58.756,0,0,0,9.009.7c1.484,0,2.918-.06,4.242-.183l.557-.051-.55-.1a4.757,4.757,0,0,1-2.934-1.309l.387.024.013-.154-.574-.061c-.352-.4-.673-.752-.977-1.083l1.054-.007,0-.155-1.273-.072c-.375-.405-.716-.768-1.038-1.1l2.087-.222-.01-.154-2.382.062-.12-.124c-.249-.258-.5-.516-.751-.769,2.1-.427,3.219-.653,3.318-.67l.084-.015-.012-.075c0-.033-.008-.052-.093-.052h0l0-.011-.074.014c-.152.012-.44.049-1,.124l-2.566.344c-.255-.253-.489-.481-.711-.692l5.245-1.451-.037-.15-5.612,1.225c-.181-.167-.362-.328-.537-.482l7.244-2.654-.05-.146-7.616,2.434c-.156-.131-.318-.262-.481-.392,4.142-1.959,9.363-4.424,10.979-5.163h0l-.063-.141c-1.731.772-7.2,3.065-11.5,4.86l-.133-.1c2.961-1.537,9.967-5.172,13.729-7.107l-.07-.138c-3.588,1.788-10.337,5.121-14.069,6.963l-.051-.036-.074-.052c5.216-3.116,16.84-10.059,16.9-10.1l.063-.04-.039-.065c-.019-.032-.031-.048-.1-.018l0-.007-.072.043c-.088.044-.227.12-.448.242l-17.1,9.453-.023-.013,20.008-12.162-.08-.132-5.708,3.289-2.016,1.251-6.3,3.63,6.627-3.907-13.27,7.645-.01,0,23.532-15.135-.083-.13-5.156,3.14-2.311,1.508-8.1,4.945,9.552-5.929-15.575,9.486,23.187-15.613-.085-.129-26.42,16.8c5.7-4.05,20.96-14.628,26.891-18.763Zm-6.084.554-.669.517-3.845,2.848Zm-3.719,6.143c-2.739,1.838-5.579,3.739-8.176,5.476,3.385-2.294,7.2-4.878,10.691-7.246Z" transform="translate(-139.527 -525.486)" fill="#cfa44b"/>
    </g>
    <g id="Group_122" data-name="Group 122" transform="translate(108.591 529.013)">
      <g id="Group_120" data-name="Group 120" transform="translate(0.439 0.536)">
        <path id="Path_109" data-name="Path 109" d="M179.96,637.806a45.407,45.407,0,0,1,8.626,12.167c-1.532-1.979-2.946-4.012-4.389-6.03C182.772,641.913,181.321,639.906,179.96,637.806Z" transform="translate(-179.96 -637.806)" fill="#cfa44b"/>
      </g>
      <g id="Group_121" data-name="Group 121">
        <path id="Path_110" data-name="Path 110" d="M188.2,649.654l-.419-.542c-1.224-1.58-2.391-3.222-3.518-4.809l-.871-1.224q-.444-.631-.889-1.26c-1.116-1.579-2.27-3.213-3.35-4.879l-.375-.578.493.481a45.475,45.475,0,0,1,8.642,12.19Zm-8.512-12.177c.959,1.449,1.964,2.872,2.94,4.253q.445.631.889,1.26.437.611.872,1.223c.988,1.391,2.006,2.823,3.065,4.218a46.283,46.283,0,0,0-7.766-10.954Z" transform="translate(-178.777 -636.362)" fill="#cfa44b"/>
      </g>
    </g>
    <g id="Group_125" data-name="Group 125" transform="translate(110.714 528.375)">
      <g id="Group_123" data-name="Group 123" transform="translate(0.067 0.051)">
        <path id="Path_111" data-name="Path 111" d="M184.675,634.783c1.026,1.167,1.988,2.379,2.941,3.6s1.874,2.462,2.789,3.709,1.8,2.515,2.655,3.805l1.281,1.937c.406.661.831,1.307,1.22,1.981-.519-.579-1-1.185-1.5-1.777l-1.441-1.821c-.959-1.215-1.874-2.462-2.787-3.71s-1.8-2.515-2.654-3.806S185.463,636.121,184.675,634.783Z" transform="translate(-184.675 -634.783)" fill="#cfa44b"/>
      </g>
      <g id="Group_124" data-name="Group 124">
        <path id="Path_112" data-name="Path 112" d="M195.886,650.332l-.5-.555c-.34-.38-.669-.777-.988-1.161-.172-.206-.342-.412-.515-.617l-1.442-1.823c-.923-1.168-1.774-2.323-2.789-3.711-.882-1.233-1.794-2.507-2.657-3.809-.777-1.161-1.676-2.516-2.5-3.92l.124-.091c1.071,1.218,2.082,2.5,2.945,3.6.946,1.2,1.863,2.447,2.749,3.656l.04.055c.88,1.228,1.789,2.5,2.658,3.809l1.281,1.937c.143.232.286.461.429.689.264.421.539.856.793,1.3Zm-10.791-14.9c.689,1.122,1.4,2.193,2.032,3.136.862,1.3,1.772,2.573,2.653,3.8,1.015,1.387,1.864,2.541,2.785,3.707l1.441,1.82c.172.2.344.41.515.616.129.156.26.315.393.473q-.162-.261-.324-.517c-.143-.229-.287-.457-.429-.688l-1.279-1.934c-.867-1.308-1.776-2.577-2.654-3.8l-.04-.055c-.886-1.208-1.8-2.456-2.746-3.651C186.742,637.446,185.944,636.434,185.1,635.433Z" transform="translate(-184.495 -634.645)" fill="#cfa44b"/>
      </g>
    </g>
  </g>
</svg>
