<svg xmlns="http://www.w3.org/2000/svg" width="44" height="44" viewBox="0 0 44 44">
  <g id="Group_323" data-name="Group 323" transform="translate(-48 -884)">
    <g id="Group_317" data-name="Group 317">
      <g id="Group_234" data-name="Group 234" transform="translate(4577 -771) rotate(90)">
        <g id="Ellipse_4" data-name="Ellipse 4" transform="translate(1655 4485)" fill="none" stroke="#211f1e" stroke-width="1">
          <circle cx="22" cy="22" r="22" stroke="none"/>
          <circle cx="22" cy="22" r="21.5" fill="none"/>
        </g>
      </g>
      <path id="Path_257" data-name="Path 257" d="M-5964.6-1696.609v5.217h21.491v-5.217Z" transform="translate(6024 2597)" fill="none" stroke="#211f1e" stroke-linecap="round" stroke-linejoin="round" stroke-width="1"/>
      <path id="Path_258" data-name="Path 258" d="M-5963.256-1681.26h18.843v-10l-18.843-.1Z" transform="translate(6024 2597)" fill="none" stroke="#211f1e" stroke-linecap="round" stroke-linejoin="round" stroke-width="1"/>
      <path id="Path_259" data-name="Path 259" d="M-5954.176-1681.26v-15.557h0s-3.477-4.815-5.174-4.725-2.771,2.305-1.613,3.506,6.787,1.219,6.787,1.219,5.334.159,6.611-.98a2.071,2.071,0,0,0-1.5-3.577c-2.187-.158-5.108,4.557-5.108,4.557" transform="translate(6024 2597)" fill="none" stroke="#211f1e" stroke-linecap="round" stroke-linejoin="round" stroke-width="1"/>
    </g>
  </g>
</svg>
