<svg xmlns="http://www.w3.org/2000/svg" width="44" height="44" viewBox="0 0 44 44">
  <g id="Group_322" data-name="Group 322" transform="translate(-48 -945)">
    <g id="Group_319" data-name="Group 319">
      <g id="Group_318" data-name="Group 318" transform="translate(0 61)">
        <g id="Group_234" data-name="Group 234" transform="translate(4577 -771) rotate(90)">
          <g id="Ellipse_4" data-name="Ellipse 4" transform="translate(1655 4485)" fill="none" stroke="#211f1e" stroke-width="1">
            <circle cx="22" cy="22" r="22" stroke="none"/>
            <circle cx="22" cy="22" r="21.5" fill="none"/>
          </g>
        </g>
      </g>
      <path id="Path_272" data-name="Path 272" d="M-5590.688-1617.852c1.9,0,1.693,2.622,4.085,3.5s4.11-1.395,5.481,0-1.074,3.11,0,5.579,4.3,2.148,4.3,4.3-3.223,1.724-4.3,4.3,1.37,4.5,0,5.995-3.16-.95-5.481,0-1.9,3.8-3.8,3.8-1.3-2.851-3.8-3.8-4.667,1.5-6.223,0,1.074-3.422,0-5.995-4.3-2.148-4.3-4.3,3.223-1.828,4.3-4.3-1.555-4.184,0-5.579,3.788.874,6.223,0S-5592.589-1617.852-5590.688-1617.852Z" transform="translate(5660.755 2571.448)" fill="none" stroke="#211f1e" stroke-width="1"/>
      <path id="Path_273" data-name="Path 273" d="M-5892.666-1819.1l10.234-10.234" transform="translate(5956.917 2791.917)" fill="none" stroke="#211f1e" stroke-linecap="round" stroke-linejoin="round" stroke-width="1"/>
      <g id="Ellipse_54" data-name="Ellipse 54" transform="translate(64 962)" fill="none" stroke="#211f1e" stroke-width="1">
        <circle cx="2" cy="2" r="2" stroke="none"/>
        <circle cx="2" cy="2" r="1.5" fill="none"/>
      </g>
      <g id="Ellipse_55" data-name="Ellipse 55" transform="translate(72 969)" fill="none" stroke="#211f1e" stroke-width="1">
        <circle cx="2" cy="2" r="2" stroke="none"/>
        <circle cx="2" cy="2" r="1.5" fill="none"/>
      </g>
    </g>
  </g>
</svg>
