<svg xmlns="http://www.w3.org/2000/svg" width="44" height="44" viewBox="0 0 44 44">
  <g id="Group_326" data-name="Group 326" transform="translate(-218 -884)">
    <g id="Group_314" data-name="Group 314">
      <g id="Group_311" data-name="Group 311" transform="translate(4747 -771) rotate(90)">
        <g id="Ellipse_4" data-name="Ellipse 4" transform="translate(1655 4485)" fill="none" stroke="#211f1e" stroke-width="1">
          <circle cx="22" cy="22" r="22" stroke="none"/>
          <circle cx="22" cy="22" r="21.5" fill="none"/>
        </g>
      </g>
      <path id="Path_270" data-name="Path 270" d="M-5826.841-1653.655v-11.3s-.1-1.993,2.367-2.026,9.044,0,9.044,0h9.023s2.494-.226,2.575,2.026,0,11.3,0,11.3Z" transform="translate(6055.6 2568.349)" fill="none" stroke="#211f1e" stroke-linecap="round" stroke-linejoin="round" stroke-width="1"/>
      <path id="Path_271" data-name="Path 271" d="M-5827.634-1660.941s1.753-2.189,3.492-2.38,2.148,2,4.321,1.857,1.821-2.187,3.828-2.057,2.076,1.864,3.732,2.057,1.914-1.857,3.762-1.857,3.937,2.38,3.937,2.38" transform="translate(6056.392 2568.966)" fill="none" stroke="#211f1e" stroke-linecap="round" stroke-linejoin="round" stroke-width="1"/>
      <g id="Ellipse_51" data-name="Ellipse 51" transform="translate(233 897)" fill="none" stroke="#211f1e" stroke-linecap="round" stroke-linejoin="round" stroke-width="1">
        <ellipse cx="1.5" cy="2" rx="1.5" ry="2" stroke="none"/>
        <ellipse cx="1.5" cy="2" rx="1" ry="1.5" fill="none"/>
      </g>
      <g id="Ellipse_52" data-name="Ellipse 52" transform="translate(239 897)" fill="none" stroke="#211f1e" stroke-linecap="round" stroke-linejoin="round" stroke-width="1">
        <ellipse cx="1.5" cy="2" rx="1.5" ry="2" stroke="none"/>
        <ellipse cx="1.5" cy="2" rx="1" ry="1.5" fill="none"/>
      </g>
      <g id="Ellipse_53" data-name="Ellipse 53" transform="translate(245 897)" fill="none" stroke="#211f1e" stroke-linecap="round" stroke-linejoin="round" stroke-width="1">
        <ellipse cx="1.5" cy="2" rx="1.5" ry="2" stroke="none"/>
        <ellipse cx="1.5" cy="2" rx="1" ry="1.5" fill="none"/>
      </g>
    </g>
  </g>
</svg>
