<svg xmlns="http://www.w3.org/2000/svg" width="44" height="44" viewBox="0 0 44 44">
  <g id="Group_327" data-name="Group 327" transform="translate(-105 -945)">
    <g id="Group_321" data-name="Group 321">
      <g id="Group_320" data-name="Group 320" transform="translate(57)">
        <g id="Group_318" data-name="Group 318" transform="translate(0 61)">
          <g id="Group_234" data-name="Group 234" transform="translate(4577 -771) rotate(90)">
            <g id="Ellipse_4" data-name="Ellipse 4" transform="translate(1655 4485)" fill="none" stroke="#211f1e" stroke-width="1">
              <circle cx="22" cy="22" r="22" stroke="none"/>
              <circle cx="22" cy="22" r="21.5" fill="none"/>
            </g>
          </g>
        </g>
      </g>
      <path id="Path_274" data-name="Path 274" d="M-5823.153-1453.893h-2.708v-14.714h14.463v14.714h-8.162" transform="translate(5941.336 2427.822)" fill="none" stroke="#211f1e" stroke-linecap="round" stroke-linejoin="round" stroke-width="1"/>
      <path id="Path_275" data-name="Path 275" d="M-5803.557-1459.831h-7.056v-4.458h4.625" transform="translate(5942.634 2428.519)" fill="none" stroke="#211f1e" stroke-linecap="round" stroke-linejoin="round" stroke-width="1"/>
      <g id="Ellipse_56" data-name="Ellipse 56" transform="translate(118 972)" fill="none" stroke="#211f1e" stroke-width="1">
        <circle cx="2" cy="2" r="2" stroke="none"/>
        <circle cx="2" cy="2" r="1.5" fill="none"/>
      </g>
      <g id="Ellipse_57" data-name="Ellipse 57" transform="translate(133 972)" fill="none" stroke="#211f1e" stroke-width="1">
        <circle cx="2" cy="2" r="2" stroke="none"/>
        <circle cx="2" cy="2" r="1.5" fill="none"/>
      </g>
      <path id="Path_276" data-name="Path 276" d="M-5813.292-1466.4h5.592l3.769,7.329v4.789h-2.382" transform="translate(5943.363 2428.178)" fill="none" stroke="#211f1e" stroke-linecap="round" stroke-linejoin="round" stroke-width="1"/>
      <path id="Path_277" data-name="Path 277" d="M-5804.236-1455.962h-3.312" transform="translate(5937.322 2429.862)" fill="none" stroke="#211f1e" stroke-linecap="round" stroke-linejoin="round" stroke-width="1"/>
    </g>
  </g>
</svg>
