<svg xmlns="http://www.w3.org/2000/svg" width="44" height="44" viewBox="0 0 44 44">
  <g id="Group_365" data-name="Group 365" transform="translate(-468 -359)">
    <g id="Group_353" data-name="Group 353" transform="translate(4997 -1296) rotate(90)">
      <g id="Ellipse_4" data-name="Ellipse 4" transform="translate(1655 4485)" fill="none" stroke="#211f1e" stroke-width="1">
        <circle cx="22" cy="22" r="22" stroke="none"/>
        <circle cx="22" cy="22" r="21.5" fill="none"/>
      </g>
    </g>
    <path id="Path_279" data-name="Path 279" d="M-6030.8-2389.6h-3.25l1.34-2.26a.5.5,0,0,0-.17-.69.5.5,0,0,0-.69.18l-1.65,2.76c-.17,0-.4.01-.69.01-2.54.03-5.31-.28-6.26,2h-.96l1.35-2.26a.506.506,0,0,0-.18-.69.5.5,0,0,0-.68.18l-1.65,2.77h-.24a3.412,3.412,0,0,0-3.29-2.52h-3.25l1.34-2.26a.5.5,0,0,0-.17-.69.5.5,0,0,0-.69.18l-1.65,2.77h-3.85a3.408,3.408,0,0,0-3.41,3.41v1.47a.5.5,0,0,0,.5.5h.12a5.534,5.534,0,0,0-.04.72,11.387,11.387,0,0,0,3.36,7.45,19.372,19.372,0,0,0,3.32,2.95.48.48,0,0,0,.56,0,18.814,18.814,0,0,0,2.65-2.24,15.453,15.453,0,0,0,1.42,1.81,20.237,20.237,0,0,0,3.32,2.95.516.516,0,0,0,.56,0,20.237,20.237,0,0,0,3.32-2.95,15.805,15.805,0,0,0,1.69-2.21l.18.21a19.42,19.42,0,0,0,3.33,2.95.464.464,0,0,0,.55,0,19.42,19.42,0,0,0,3.33-2.95,11.385,11.385,0,0,0,3.36-7.45c0-.25-.02-.49-.04-.72h.12a.5.5,0,0,0,.5-.5v-1.47A3.414,3.414,0,0,0-6030.8-2389.6Zm-9.07,3a2.385,2.385,0,0,1,2.17,1.38,2.229,2.229,0,0,1,.24,1v1h-13.09v-.97a2.411,2.411,0,0,1,2.41-2.41Zm-18.63-.11a2.411,2.411,0,0,1,2.41-2.41h8.27a2.42,2.42,0,0,1,2.24,1.52h-2.57a3.4,3.4,0,0,0-3.03,1.86h-7.32Zm6.55,12.06c-1.22-.9-5.96-4.7-5.96-9.37a5.834,5.834,0,0,1,.04-.72h6.36a3.376,3.376,0,0,0-.05.55v1.47a.5.5,0,0,0,.5.5h.13a5.622,5.622,0,0,0-.04.72,9.685,9.685,0,0,0,1.39,4.77A19.483,19.483,0,0,1-6051.95-2374.65Zm7.94,2.52c-1.22-.9-5.96-4.7-5.96-9.37a5.834,5.834,0,0,1,.04-.72h11.83a5.755,5.755,0,0,1,.05.72,8.061,8.061,0,0,1-.82,3.44c-.16.33-.34.66-.52.98A18.321,18.321,0,0,1-6044.01-2372.13Zm9.08-2a20.216,20.216,0,0,1-3.26-3.06,9.358,9.358,0,0,0,1.14-4.31,5.622,5.622,0,0,0-.04-.72h.13a.508.508,0,0,0,.5-.5v-1.5h7.44a5.834,5.834,0,0,1,.04.72C-6028.98-2378.83-6033.72-2375.02-6034.93-2374.13Zm6.54-11.09h-8.23a3.419,3.419,0,0,0-3.26-2.38h-1.14a2.383,2.383,0,0,1,1.95-1h8.27a2.411,2.411,0,0,1,2.41,2.41Z" transform="translate(6532.5 2764.139)" fill="#211f1e"/>
    <line id="Line_123" data-name="Line 123" x1="30" y2="30" transform="translate(475.5 366.5)" fill="none" stroke="#1f1d1c" stroke-width="1"/>
    <line id="Line_126" data-name="Line 126" x2="30" y2="30" transform="translate(474.5 366.5)" fill="none" stroke="#1f1d1c" stroke-width="1"/>
  </g>
</svg>
