<svg xmlns="http://www.w3.org/2000/svg" width="44" height="44" viewBox="0 0 44 44">
  <g id="Group_358" data-name="Group 358" transform="translate(-468 -29)">
    <g id="Group_349" data-name="Group 349" transform="translate(246)">
      <g id="Group_243" data-name="Group 243" transform="translate(4751 -1626) rotate(90)">
        <g id="Ellipse_4" data-name="Ellipse 4" transform="translate(1655 4485)" fill="none" stroke="#211f1e" stroke-width="1">
          <circle cx="22" cy="22" r="22" stroke="none"/>
          <circle cx="22" cy="22" r="21.5" fill="none"/>
        </g>
      </g>
      <g id="Group_244" data-name="Group 244" transform="translate(294.99 33.721) rotate(121)">
        <path id="Path_2" data-name="Path 2" d="M52.792,47.514a2.148,2.148,0,1,0,3.038,0A2.151,2.151,0,0,0,52.792,47.514Zm2.268,2.267h0a1.084,1.084,0,0,1-1.5,0,1.059,1.059,0,1,1,1.5,0Z" transform="translate(-15.935 -15.937)" fill="#211f1e"/>
        <path id="Path_3" data-name="Path 3" d="M40.432,59.874a2.148,2.148,0,1,0,3.038,0A2.15,2.15,0,0,0,40.432,59.874ZM42.7,62.142h0a1.084,1.084,0,0,1-1.5,0,1.059,1.059,0,1,1,1.5,0Z" transform="translate(-7.421 -24.451)" fill="#211f1e"/>
        <path id="Path_4" data-name="Path 4" d="M50.794,36.274a4.718,4.718,0,0,0-.3-1.665,3.038,3.038,0,0,1,0-2.108,4.719,4.719,0,0,0,.3-1.665,4.768,4.768,0,0,0-2.739-4.3.588.588,0,0,1-.34-.528v-.584a1.669,1.669,0,0,0-3.085-.887.543.543,0,0,0-.177.118.586.586,0,0,1-.614.133,4.769,4.769,0,0,0-4.977,1.1,4.718,4.718,0,0,0-.964,1.391,3.038,3.038,0,0,1-1.491,1.491,4.752,4.752,0,0,0-2.355,2.355,3.04,3.04,0,0,1-1.491,1.491,4.717,4.717,0,0,0-1.391.965,4.768,4.768,0,0,0-1.1,4.977.588.588,0,0,1-.133.614l-.413.413a1.672,1.672,0,1,0,2.365,2.365l.413-.413a.589.589,0,0,1,.614-.133,4.768,4.768,0,0,0,4.977-1.1,4.72,4.72,0,0,0,.965-1.391,3.037,3.037,0,0,1,1.491-1.491,4.705,4.705,0,0,0,.98-.6,4.705,4.705,0,0,0,.267,1.123,3.041,3.041,0,0,1,0,2.108,4.718,4.718,0,0,0-.3,1.665,4.768,4.768,0,0,0,2.738,4.3.588.588,0,0,1,.341.528v.584a1.673,1.673,0,0,0,3.345,0v-.584a.588.588,0,0,1,.34-.528,4.768,4.768,0,0,0,2.739-4.3,4.719,4.719,0,0,0-.3-1.665,3.038,3.038,0,0,1,0-2.108A4.718,4.718,0,0,0,50.794,36.274Zm-10.9.154a4.085,4.085,0,0,0-2.032,2.033,3.659,3.659,0,0,1-4.579,1.921,1.682,1.682,0,0,0-1.755.386l-.413.413a.6.6,0,0,1-.825,0,.584.584,0,0,1,0-.825l.413-.413a1.68,1.68,0,0,0,.386-1.755,3.657,3.657,0,0,1,1.921-4.579,4.086,4.086,0,0,0,2.033-2.033,3.661,3.661,0,0,1,1.813-1.813,4.087,4.087,0,0,0,2.033-2.033,3.633,3.633,0,0,1,.743-1.07,3.674,3.674,0,0,1,3.836-.851,1.682,1.682,0,0,0,.9.065v.132a.589.589,0,0,1-.34.528,4.706,4.706,0,0,0-1.076.7,2.145,2.145,0,0,0-1.646,3.957,4.7,4.7,0,0,0,.286,1.31,3.041,3.041,0,0,1,0,2.108,4.711,4.711,0,0,0-.157.515.6.6,0,0,0-.048.056A3.669,3.669,0,0,1,39.9,36.429ZM41.474,28.5a1.058,1.058,0,0,1,.626-.3,4.765,4.765,0,0,0-.711,1.7A1.057,1.057,0,0,1,41.474,28.5Zm8,6.491a3.663,3.663,0,0,1,0,2.565,4.086,4.086,0,0,0,0,2.875,3.637,3.637,0,0,1,.232,1.282,3.674,3.674,0,0,1-2.111,3.314,1.682,1.682,0,0,0-.968,1.515v.584a.583.583,0,1,1-1.167,0v-.584a1.681,1.681,0,0,0-.968-1.515,3.674,3.674,0,0,1-2.111-3.314,3.637,3.637,0,0,1,.232-1.282,4.086,4.086,0,0,0,0-2.875,3.662,3.662,0,0,1,0-2.565,4.086,4.086,0,0,0,0-2.875,3.637,3.637,0,0,1-.232-1.282,3.674,3.674,0,0,1,2.111-3.314,1.682,1.682,0,0,0,.968-1.515v-.584a.583.583,0,1,1,1.167,0v.584a1.682,1.682,0,0,0,.968,1.515,3.674,3.674,0,0,1,2.111,3.314,3.637,3.637,0,0,1-.232,1.282A4.086,4.086,0,0,0,49.473,34.992Z" transform="translate(0)" fill="#211f1e"/>
      </g>
    </g>
    <line id="Line_118" data-name="Line 118" x1="31" y2="31" transform="translate(474.5 35.5)" fill="none" stroke="#1f1d1c" stroke-width="1"/>
  </g>
</svg>
