<svg xmlns="http://www.w3.org/2000/svg" width="44" height="44" viewBox="0 0 44 44">
  <g id="Group_371" data-name="Group 371" transform="translate(-397 -695)">
    <g id="Group_228" data-name="Group 228" transform="translate(4926 -960) rotate(90)">
      <g id="Ellipse_4" data-name="Ellipse 4" transform="translate(1655 4485)" fill="none" stroke="#211f1e" stroke-width="1">
        <circle cx="22" cy="22" r="22" stroke="none"/>
        <circle cx="22" cy="22" r="21.5" fill="none"/>
      </g>
    </g>
    <g id="Group_233" data-name="Group 233" transform="translate(375.519 328.421)">
      <path id="Path_190" data-name="Path 190" d="M3030.552,6330.632h8.441l5.8,5.8,5.8-5.8h8.681" transform="translate(-3001 -5934)" fill="none" stroke="#211f1e" stroke-linecap="round" stroke-linejoin="round" stroke-width="1"/>
      <path id="Path_191" data-name="Path 191" d="M3029.989,6314.26c-.51,2.3-.229,4.267.77,5.527s6.993,1.311,9.4,3.757,5.719.9,2.836-1.721-2.623-3.851-1.593-4.444,3.574.25,5.31,2.1,1.76,5.76,3.312,5.592,1.781-2.583.8-5.283-3.106-6.525-7.119-7.371S3030.5,6311.964,3029.989,6314.26Z" transform="translate(-1381.089 -6482.895) rotate(14)" fill="none" stroke="#211f1e" stroke-linecap="round" stroke-linejoin="round" stroke-width="1"/>
      <circle id="Ellipse_24" data-name="Ellipse 24" cx="1" cy="1" r="1" transform="translate(42 393)" fill="#211f1e"/>
      <circle id="Ellipse_25" data-name="Ellipse 25" cx="1" cy="1" r="1" transform="translate(44 391)" fill="#211f1e"/>
      <circle id="Ellipse_26" data-name="Ellipse 26" cx="1" cy="1" r="1" transform="translate(44 396)" fill="#211f1e"/>
      <circle id="Ellipse_27" data-name="Ellipse 27" cx="1" cy="1" r="1" transform="translate(47 394)" fill="#211f1e"/>
    </g>
  </g>
</svg>
