<svg xmlns="http://www.w3.org/2000/svg" width="44" height="44" viewBox="0 0 44 44">
  <g id="Group_360" data-name="Group 360" transform="translate(-468 -192)">
    <g id="Group_351" data-name="Group 351" transform="translate(246)">
      <g id="Group_251" data-name="Group 251" transform="translate(4751 -1463) rotate(90)">
        <g id="Ellipse_4" data-name="Ellipse 4" transform="translate(1655 4485)" fill="none" stroke="#211f1e" stroke-width="1">
          <circle cx="22" cy="22" r="22" stroke="none"/>
          <circle cx="22" cy="22" r="21.5" fill="none"/>
        </g>
      </g>
      <g id="Group_252" data-name="Group 252" transform="translate(208.25 178.851)">
        <path id="Path_8" data-name="Path 8" d="M45.366,44.915h-5.81a8.294,8.294,0,0,0,.257-10.451,9.14,9.14,0,0,1-2.088-5.732v-.159a.479.479,0,0,0,.355-.462V26.872h.109a.48.48,0,0,0,.48-.48V24.23a.48.48,0,0,0-.48-.48H31.407a.48.48,0,0,0-.48.48v2.162a.48.48,0,0,0,.48.48h.109v1.239a.479.479,0,0,0,.355.462v.159a9.139,9.139,0,0,1-2.088,5.732,8.294,8.294,0,0,0,.257,10.451H24.23a.48.48,0,1,0,0,.961H45.366a.48.48,0,0,0,0-.961Zm-13.478-20.2h5.821v1.2H31.888Zm5.231,2.162v.759H32.477v-.759Zm-8.1,12.668a7.177,7.177,0,0,1,1.518-4.477,10.092,10.092,0,0,0,2.3-6.331v-.141h3.931v.141a10.093,10.093,0,0,0,2.3,6.332,7.176,7.176,0,0,1,1.518,4.477,6.984,6.984,0,0,1-2.4,5.375H31.42A6.984,6.984,0,0,1,29.017,39.541Z" fill="#211f1e"/>
        <path id="Path_9" data-name="Path 9" d="M58.354,68.179a.48.48,0,0,0-.537.057c-.037.032-.723.613-1.389,1.262-.283-.868-.641-1.709-.661-1.756a.48.48,0,0,0-.883,0c-.02.046-.378.888-.661,1.756-.666-.649-1.351-1.23-1.389-1.262a.48.48,0,0,0-.787.421,12.886,12.886,0,0,0,.782,3.379,2.45,2.45,0,0,0,1.9,1.4,1.073,1.073,0,0,0,.388-.07,1.22,1.22,0,0,0,.211-.111,1.208,1.208,0,0,0,.211.111c.722.278,1.705-.295,2.286-1.332a12.89,12.89,0,0,0,.782-3.379A.48.48,0,0,0,58.354,68.179Zm-1.369,3.388c-.38.678-.928.969-1.094.908-.03-.014-.11-.068-.152-.1a.59.59,0,0,0-.823,0c-.043.029-.123.083-.144.094-.173.068-.723-.226-1.1-.9a6.857,6.857,0,0,1-.472-1.721c.307.286.636.607.907.9a.48.48,0,0,0,.821-.213,12.614,12.614,0,0,1,.4-1.286,12.575,12.575,0,0,1,.4,1.286.48.48,0,0,0,.821.213c.271-.3.6-.616.907-.9A6.979,6.979,0,0,1,56.985,71.567Z" transform="translate(-20.528 -31.705)" fill="#211f1e"/>
      </g>
    </g>
    <line id="Line_122" data-name="Line 122" x1="31" y2="31" transform="translate(474.5 198.5)" fill="none" stroke="#1f1d1c" stroke-width="1"/>
    <line id="Line_131" data-name="Line 131" x2="31" y2="31" transform="translate(474.5 198.5)" fill="none" stroke="#1f1d1c" stroke-width="1"/>
  </g>
</svg>
