<svg xmlns="http://www.w3.org/2000/svg" width="44" height="44" viewBox="0 0 44 44">
  <g id="Group_372" data-name="Group 372" transform="translate(-401 -785)">
    <g id="Group_258" data-name="Group 258" transform="translate(364 188)">
      <g id="Group_234" data-name="Group 234" transform="translate(4566 -1058) rotate(90)">
        <g id="Ellipse_4" data-name="Ellipse 4" transform="translate(1655 4485)" fill="none" stroke="#211f1e" stroke-width="1">
          <circle cx="22" cy="22" r="22" stroke="none"/>
          <circle cx="22" cy="22" r="21.5" fill="none"/>
        </g>
      </g>
      <g id="Ellipse_29" data-name="Ellipse 29" transform="translate(56 607)" fill="none" stroke="#211f1e" stroke-width="1">
        <circle cx="2.5" cy="2.5" r="2.5" stroke="none"/>
        <circle cx="2.5" cy="2.5" r="2" fill="none"/>
      </g>
      <path id="Path_195" data-name="Path 195" d="M2427.593,7019.994s-4.682.025-4.69,8.3c2.173.053,1.968,0,1.968,0l1.75-4.985-3.348,9.521h9.92l-1.64-4.962-1.506-4.559,1.675,4.985h2.114s-.475-8.417-4.478-8.3C2428.3,7019.985,2427.593,7019.994,2427.593,7019.994Z" transform="translate(-2369.635 -6408.165)" fill="none" stroke="#211f1e" stroke-linecap="round" stroke-linejoin="round" stroke-width="1"/>
      <path id="Path_196" data-name="Path 196" d="M2430.85,7052.823v4.66s-.093,1.265.969,1.263.928-1.263.928-1.263v-4.66" transform="translate(-2374.44 -6428.022)" fill="none" stroke="#211f1e" stroke-linecap="round" stroke-linejoin="round" stroke-width="1"/>
      <path id="Path_197" data-name="Path 197" d="M2430.85,7052.823v4.66s-.093,1.265.969,1.263.928-1.263.928-1.263v-4.66" transform="translate(-2371.279 -6428.022)" fill="none" stroke="#211f1e" stroke-linecap="round" stroke-linejoin="round" stroke-width="1"/>
      <line id="Line_115" data-name="Line 115" x1="11" transform="translate(43.5 627.5)" fill="none" stroke="#211f1e" stroke-linecap="round" stroke-width="1"/>
      <line id="Line_116" data-name="Line 116" x1="11" transform="translate(63.5 627.5)" fill="none" stroke="#211f1e" stroke-linecap="round" stroke-width="1"/>
    </g>
  </g>
</svg>
