<svg xmlns="http://www.w3.org/2000/svg" width="44" height="44" viewBox="0 0 44 44">
  <g id="Group_363" data-name="Group 363" transform="translate(-398 -276)">
    <g id="Group_343" data-name="Group 343" transform="translate(176)">
      <g id="Group_214" data-name="Group 214" transform="translate(4751 -1379) rotate(90)">
        <g id="Ellipse_4" data-name="Ellipse 4" transform="translate(1655 4485)" fill="none" stroke="#211f1e" stroke-width="1">
          <circle cx="22" cy="22" r="22" stroke="none"/>
          <circle cx="22" cy="22" r="21.5" fill="none"/>
        </g>
      </g>
      <path id="Path_180" data-name="Path 180" d="M46.585,24.23a.5.5,0,0,0-.444-.444c-.232-.024-5.711-.546-8.853,2.6A9.252,9.252,0,0,0,34.93,31.16a4.453,4.453,0,0,0-.757-1.026c-1.821-1.821-4.97-1.521-5.1-1.508a.5.5,0,0,0-.444.444c-.014.133-.313,3.281,1.508,5.1a4.45,4.45,0,0,0,1.028.757,9.255,9.255,0,0,0-4.779,2.358c-3.142,3.142-2.62,8.622-2.6,8.853a.5.5,0,0,0,.444.444c.061.006.479.047,1.121.047,1.815,0,5.412-.322,7.733-2.643a9.252,9.252,0,0,0,2.357-4.777,4.446,4.446,0,0,0,.757,1.026,6.463,6.463,0,0,0,4.465,1.534c.365,0,.6-.023.637-.026a.5.5,0,0,0,.444-.444c.014-.133.313-3.281-1.508-5.1a4.442,4.442,0,0,0-1.029-.759,9.247,9.247,0,0,0,4.78-2.356C47.131,29.942,46.609,24.462,46.585,24.23ZM30.837,33.469A5.627,5.627,0,0,1,29.6,29.6a5.635,5.635,0,0,1,3.872,1.24,4.78,4.78,0,0,1,1.182,2.81c0,.1-.005.2-.006.295l-3.157-3.157a.5.5,0,0,0-.7.7l3.157,3.157-.289.006A4.785,4.785,0,0,1,30.837,33.469Zm1.543,9.816c-2.337,2.338-6.334,2.386-7.63,2.336-.051-1.3,0-5.292,2.336-7.63,1.868-1.868,4.79-2.274,6.553-2.336.119.013.233.022.344.03l-4.431,4.431-2.036-.14a.5.5,0,0,0-.068.993l1.17.08-1.065,1.065a.5.5,0,0,0,.7.7l2.249-2.249-.115,1.663a.5.5,0,0,0,.462.53h.035a.5.5,0,0,0,.5-.463l.193-2.8,3.108-3.109q.012.164.03.342C34.654,38.493,34.248,41.417,32.38,43.285ZM39.534,36.9a5.627,5.627,0,0,1,1.24,3.872,5.635,5.635,0,0,1-3.872-1.24,4.78,4.78,0,0,1-1.182-2.81c0-.1.005-.2.006-.295l3.157,3.157a.5.5,0,1,0,.7-.7l-3.158-3.158.286-.006A4.789,4.789,0,0,1,39.534,36.9Zm-2.8-2.186q-.177-.019-.341-.03L39.5,31.577l2.8-.193a.5.5,0,1,0-.068-.993l-1.663.115,2.249-2.249a.5.5,0,1,0-.7-.7l-1.065,1.065-.08-1.17a.5.5,0,0,0-.993.068l.14,2.036-4.431,4.431q-.012-.164-.03-.342c.062-1.762.467-4.686,2.336-6.554,2.338-2.338,6.334-2.386,7.63-2.336.051,1.3,0,5.292-2.336,7.63C41.416,34.249,38.491,34.654,36.729,34.716Z" transform="translate(209.261 262.86)" fill="#211f1e"/>
    </g>
  </g>
</svg>
