<svg version="1.1" id="Layer_1" xmlns="http://www.w3.org/2000/svg" xmlns:xlink="http://www.w3.org/1999/xlink" x="0px" y="0px"
	 viewBox="0 0 83.6 83.6" style="enable-background:new 0 0 83.6 83.6;" xml:space="preserve">
<style type="text/css">
	.st0{fill:#F4F2EF;}
	.st1{fill:none;stroke:#F4F2EF;stroke-width:3;stroke-miterlimit:10;}
</style>
<g>
	<g id="Group_161" transform="matrix(0.242, 0.97, -0.97, 0.242, 4091.578, -14192.729)">
		<path id="Icon_material-arrow_downward" class="st0" d="M12831.9,7335.9l-2.3,2.4l9.3,10l0,1.5l-9.8,10.8l2.2,2.4l12.8-13.8
			L12831.9,7335.9z"/>
	</g>
	<g id="Group_161_1_" transform="matrix(0.242, 0.97, -0.97, 0.242, 4091.578, -14192.729)">
		<path id="Icon_material-arrow_downward_1_" class="st0" d="M12842,7419.4l2.3-2.4l-9.3-10l0-1.5l9.8-10.8l-2.2-2.4l-12.8,13.8
			L12842,7419.4z"/>
	</g>
	<path class="st1" d="M14,36.2c3.1-12.5,14.3-21.7,27.7-21.7c15.3,0,27.8,12,28.5,27.1 M14,36.2 M13.5,47.4 M69,51.4
		c-3.6,11.7-14.4,20.2-27.3,20.2c-14.3,0-26.1-10.5-28.2-24.2 M69,51.4"/>
</g>
</svg>
