<svg xmlns="http://www.w3.org/2000/svg" width="96.215" height="101.889" viewBox="0 0 96.215 101.889">
  <g id="Group_142" data-name="Group 142" transform="translate(1.503 1.5)">
    <path id="Path_119" data-name="Path 119" d="M56.4,95.184A43.592,43.592,0,1,1,96.93,35.533" transform="translate(-6.071 -8)" fill="none" stroke="#b7cbc1" stroke-linecap="round" stroke-linejoin="round" stroke-width="3"/>
    <path id="Path_120" data-name="Path 120" d="M31.782,72.492a48.976,48.976,0,0,1,25.237-32.12" transform="translate(13.956 26.162)" fill="none" stroke="#b7cbc1" stroke-linecap="round" stroke-linejoin="round" stroke-width="3"/>
    <path id="Path_121" data-name="Path 121" d="M35.119,75.864S29,58.053,37.412,46.509s28.46-11.771,39-20.648c0,0,11.81,45.525-32.12,52.768" transform="translate(15.208 10.849)" fill="none" stroke="#b7cbc1" stroke-linecap="round" stroke-linejoin="round" stroke-width="3"/>
    <path id="Path_122" data-name="Path 122" d="M16.263,31.566l-4.587-4.589s-7.126,23.981,4.587,39,20.65,9.177,20.65,9.177" transform="translate(-9.529 12.026)" fill="none" stroke="#b7cbc1" stroke-linecap="round" stroke-linejoin="round" stroke-width="3"/>
    <path id="Path_123" data-name="Path 123" d="M30.737,73.017s1.385-6.234,2-9.015a3.63,3.63,0,0,1,1.367-2.115l0,0a6.1,6.1,0,0,0,2.123-6.8c-1.12-3.362-2.657-7.97-3.572-10.714a10.4,10.4,0,0,1-.428-4.756c.164-1.161.376-2.635.6-4.18a10.39,10.39,0,0,0-7.95-11.6L14.293,21.4" transform="translate(-4.501 6.137)" fill="none" stroke="#b7cbc1" stroke-linecap="round" stroke-linejoin="round" stroke-width="3"/>
    <path id="Path_124" data-name="Path 124" d="M50.2,11.176s-2.935,3.05-5.488,5.7a10.4,10.4,0,0,0-2.738,9.068c.294,1.609.6,3.315.851,4.68a6.285,6.285,0,0,1-1.157,4.9v0A6.269,6.269,0,0,0,40.6,40.813c.228.915.421,1.692.421,1.692" transform="translate(23.067 -4.648)" fill="none" stroke="#b7cbc1" stroke-linecap="round" stroke-linejoin="round" stroke-width="3"/>
    <line id="Line_54" data-name="Line 54" y1="5.138" x2="20.553" transform="translate(57.489 72.963)" fill="none" stroke="#b7cbc1" stroke-linecap="round" stroke-linejoin="round" stroke-width="3"/>
    <line id="Line_55" data-name="Line 55" x2="7.194" y2="1.784" transform="translate(8.162 67.825)" fill="none" stroke="#b7cbc1" stroke-linecap="round" stroke-linejoin="round" stroke-width="3"/>
    <path id="Path_125" data-name="Path 125" d="M22,24.276A29.058,29.058,0,0,1,43.581,14" transform="translate(3.633 -1.668)" fill="none" stroke="#b7cbc1" stroke-linecap="round" stroke-linejoin="round" stroke-width="3"/>
  </g>
</svg>
